<?xml version="1.0" encoding="UTF-8"?>
<svg width="368px" height="512px" viewBox="0 0 368 512" version="1.1" xmlns="http://www.w3.org/2000/svg" xmlns:xlink="http://www.w3.org/1999/xlink">
    <!-- Generator: Sketch 48.2 (47327) - http://www.bohemiancoding.com/sketch -->
    <title>cactus (4)</title>
    <desc>Created with Sketch.</desc>
    <defs></defs>
    <g id="Page-1" stroke="none" stroke-width="1" fill="none" fill-rule="evenodd">
        <g id="cactus-(4)" transform="translate(-1.000000, 0.000000)" fill-rule="nonzero">
            <path d="M360.583,183.07 C351.256,265.557 270.585,365.513 185.013,365.513 C99.441,365.513 18.77,265.557 9.443,183.07 C-0.992,90.777 77.085,7.5 185.013,7.5 C292.941,7.5 371.018,90.777 360.583,183.07 Z" id="Shape" fill="#80C56E"></path>
            <path d="M295.009,183.07 C289.166,265.557 238.624,365.513 185.013,365.513 C131.402,365.513 80.861,265.557 75.017,183.07 C68.48,90.777 117.395,7.5 185.013,7.5 C252.631,7.5 301.547,90.777 295.009,183.07 Z" id="Shape" fill="#66AD66"></path>
            <path d="M225.667,183.07 C223.507,265.557 204.828,365.513 185.014,365.513 C165.2,365.513 146.52,265.557 144.361,183.07 C141.943,90.777 160.022,7.5 185.013,7.5 C210.004,7.5 228.083,90.777 225.667,183.07 Z" id="Shape" fill="#80C56E"></path>
            <path d="M275.375,504.5 L94.651,504.5 C80.185,504.5 67.709,494.337 64.783,480.169 L32.7,324.789 L337.326,324.789 L305.243,480.17 C302.318,494.337 289.842,504.5 275.375,504.5 Z" id="Shape" fill="#FEC37D"></path>
            <path d="M287.825,324.789 L255.742,480.17 C252.817,494.337 240.341,504.501 225.875,504.501 L275.376,504.501 C289.842,504.501 302.318,494.338 305.243,480.17 L337.326,324.789 L287.825,324.789 Z" id="Shape" fill="#F9AE5D"></path>
            <path d="M349.561,335.981 L20.465,335.981 C17.683,335.981 15.428,333.726 15.428,330.944 L15.428,311.704 C15.428,308.922 17.683,306.667 20.465,306.667 L349.561,306.667 C352.343,306.667 354.598,308.922 354.598,311.704 L354.598,330.944 C354.598,333.726 352.343,335.981 349.561,335.981 Z" id="Shape" fill="#F2A559"></path>
            <path d="M349.561,306.668 L303.178,306.668 L303.178,335.981 L349.561,335.981 C352.343,335.981 354.598,333.726 354.598,330.944 L354.598,311.704 C354.598,308.923 352.343,306.668 349.561,306.668 Z" id="Shape" fill="#EA8F3D"></path>
            <g id="Group" transform="translate(177.000000, 60.000000)" fill="#66AD66">
                <circle id="Oval" cx="8.01" cy="8.31" r="7.757"></circle>
                <circle id="Oval" cx="8.01" cy="68.99" r="7.757"></circle>
                <circle id="Oval" cx="8.01" cy="129.66" r="7.757"></circle>
                <circle id="Oval" cx="8.01" cy="190.33" r="7.757"></circle>
            </g>
            <g id="Group" transform="translate(102.000000, 60.000000)" fill="#80C56E">
                <circle id="Oval" cx="25.84" cy="8.31" r="7.757"></circle>
                <circle id="Oval" cx="8.48" cy="68.99" r="7.757"></circle>
                <circle id="Oval" cx="8.48" cy="129.66" r="7.757"></circle>
                <circle id="Oval" cx="18.08" cy="190.33" r="7.757"></circle>
                <circle id="Oval" cx="140.55" cy="8.31" r="7.757"></circle>
                <circle id="Oval" cx="157.9" cy="68.99" r="7.757"></circle>
                <circle id="Oval" cx="157.9" cy="129.66" r="7.757"></circle>
                <circle id="Oval" cx="148.31" cy="190.33" r="7.757"></circle>
            </g>
            <g id="Group" transform="translate(35.000000, 60.000000)" fill="#66AD66">
                <circle id="Oval" cx="260.6" cy="8.31" r="7.757"></circle>
                <circle id="Oval" cx="291.62" cy="68.99" r="7.757"></circle>
                <circle id="Oval" cx="291.62" cy="129.66" r="7.757"></circle>
                <circle id="Oval" cx="276.11" cy="190.33" r="7.757"></circle>
                <circle id="Oval" cx="39.43" cy="8.31" r="7.757"></circle>
                <circle id="Oval" cx="8.4" cy="68.99" r="7.757"></circle>
                <circle id="Oval" cx="8.4" cy="129.66" r="7.757"></circle>
                <circle id="Oval" cx="23.92" cy="190.33" r="7.757"></circle>
            </g>
            <polygon id="Shape" fill="#F2A559" points="275.723 417.61 230.362 389.61 185.007 417.61 139.65 389.61 94.295 417.61 45.667 387.588 55.667 436.019 94.295 459.868 139.65 431.867 185.007 459.868 230.362 431.867 275.723 459.868 314.359 436.019 324.359 387.589"></polygon>
            <polygon id="Shape" fill="#EA8F3D" points="275.723 459.868 314.359 436.019 320.485 406.35 324.359 387.589 275.723 417.61 269.458 413.743 261.719 451.223"></polygon>
            <circle id="Oval" fill="#000000" cx="185.01" cy="68.31" r="7.757"></circle>
            <circle id="Oval" fill="#000000" cx="185.01" cy="128.99" r="7.757"></circle>
            <circle id="Oval" fill="#000000" cx="185.01" cy="189.66" r="7.757"></circle>
            <circle id="Oval" fill="#000000" cx="185.01" cy="250.33" r="7.757"></circle>
            <circle id="Oval" fill="#000000" cx="127.84" cy="68.31" r="7.757"></circle>
            <circle id="Oval" fill="#000000" cx="110.48" cy="128.99" r="7.757"></circle>
            <circle id="Oval" fill="#000000" cx="110.48" cy="189.66" r="7.757"></circle>
            <circle id="Oval" fill="#000000" cx="120.08" cy="250.33" r="7.757"></circle>
            <circle id="Oval" fill="#000000" cx="242.55" cy="68.31" r="7.757"></circle>
            <circle id="Oval" fill="#000000" cx="259.9" cy="128.99" r="7.757"></circle>
            <circle id="Oval" fill="#000000" cx="259.9" cy="189.66" r="7.757"></circle>
            <circle id="Oval" fill="#000000" cx="250.31" cy="250.33" r="7.757"></circle>
            <circle id="Oval" fill="#000000" cx="295.6" cy="68.31" r="7.757"></circle>
            <circle id="Oval" fill="#000000" cx="326.62" cy="128.99" r="7.757"></circle>
            <circle id="Oval" fill="#000000" cx="326.62" cy="189.66" r="7.757"></circle>
            <circle id="Oval" fill="#000000" cx="311.11" cy="250.33" r="7.757"></circle>
            <circle id="Oval" fill="#000000" cx="74.43" cy="68.31" r="7.757"></circle>
            <circle id="Oval" fill="#000000" cx="43.4" cy="128.99" r="7.757"></circle>
            <circle id="Oval" fill="#000000" cx="43.4" cy="189.66" r="7.757"></circle>
            <circle id="Oval" fill="#000000" cx="58.92" cy="250.33" r="7.757"></circle>
            <path d="M356.165,105.068 C354.515,101.269 350.096,99.529 346.297,101.179 C342.498,102.83 340.758,107.249 342.409,111.047 C352.153,133.464 355.861,158.078 353.131,182.227 C348.729,221.155 327.717,264.645 296.739,299.168 L269.707,299.168 C287.698,264.133 299.781,221.854 302.491,183.6 C304.536,154.734 301.313,125.553 293.171,99.212 C285.149,73.261 272.542,50.562 256.71,33.569 C254.196,30.871 251.617,28.331 248.977,25.948 C252.172,27.103 255.335,28.34 258.458,29.677 C280.109,38.941 298.951,52.063 314.461,68.679 C317.286,71.707 322.032,71.871 325.062,69.044 C328.089,66.218 328.253,61.472 325.426,58.444 C308.484,40.295 287.939,25.976 264.359,15.887 C239.726,5.345 213.03,0 185.013,0 C128.922,0 76.823,22.31 42.074,61.209 C11.188,95.783 -3.046,139.36 1.991,183.912 C6.309,222.107 25.305,264.176 53.604,299.167 L20.466,299.167 C13.553,299.167 7.929,304.791 7.929,311.704 L7.929,330.944 C7.929,337.857 13.553,343.481 20.466,343.481 L28.902,343.481 L38.321,389.099 C38.321,389.101 38.321,389.102 38.322,389.104 L48.322,437.535 C48.322,437.538 48.323,437.54 48.324,437.542 L57.439,481.684 C61.065,499.251 76.714,512 94.651,512 L275.375,512 C293.312,512 308.962,499.251 312.588,481.686 L321.704,437.538 C321.704,437.537 321.704,437.536 321.704,437.536 L323.703,427.852 L341.124,343.482 L349.561,343.482 C356.473,343.482 362.097,337.858 362.097,330.945 L362.097,311.705 C362.097,304.792 356.473,299.168 349.561,299.168 L316.422,299.168 C344.721,264.177 363.716,222.108 368.035,183.913 C371.061,157.156 366.956,129.892 356.165,105.068 Z M245.735,43.794 C275.326,75.555 291.34,128.72 287.527,182.54 C284.774,221.407 271.825,264.661 252.714,299.168 L220.828,299.168 C227.599,264.235 232.159,221.678 233.164,183.266 C234.17,144.869 231.646,106.282 226.058,74.613 C222.909,56.765 217.618,34.553 209.226,19.105 C222.378,23.669 234.734,31.986 245.735,43.794 Z M185.013,15 C186.945,15 188.972,16.665 190.331,18.061 C198.493,26.439 206.131,48.002 211.286,77.22 C216.704,107.929 219.148,145.451 218.169,182.874 C217.155,221.566 212.473,264.513 205.543,299.168 L164.483,299.168 C157.553,264.513 152.87,221.566 151.857,182.874 C150.877,145.451 153.322,107.929 158.74,77.22 C163.894,48.002 171.532,26.439 179.695,18.061 C181.054,16.665 183.081,15 185.013,15 Z M160.8,19.105 C152.408,34.553 147.117,56.765 143.968,74.613 C138.38,106.282 135.856,144.869 136.862,183.266 C137.867,221.678 142.427,264.234 149.198,299.168 L117.312,299.168 C98.2,264.662 85.252,221.408 82.499,182.54 C78.686,128.72 94.7,75.555 124.291,43.794 C135.292,31.986 147.649,23.669 160.8,19.105 Z M16.895,182.227 C12.344,141.977 25.259,102.548 53.26,71.203 C71.368,50.932 94.67,35.575 120.908,26.077 C118.317,28.423 115.784,30.919 113.315,33.569 C97.484,50.562 84.876,73.26 76.854,99.212 C68.712,125.553 65.489,154.734 67.534,183.6 C70.244,221.854 82.327,264.133 100.318,299.168 L73.286,299.168 C42.309,264.645 21.298,221.155 16.895,182.227 Z M297.898,478.652 C295.703,489.284 286.231,497 275.375,497 L94.651,497 C83.795,497 74.323,489.284 72.128,478.653 L66.53,451.542 L90.354,466.251 C92.77,467.742 95.82,467.742 98.234,466.251 L139.649,440.682 L181.066,466.251 C182.273,466.997 183.639,467.369 185.006,467.369 C186.372,467.369 187.738,466.996 188.946,466.251 L230.362,440.682 L271.784,466.251 C274.198,467.742 277.249,467.742 279.663,466.251 L303.497,451.539 L297.898,478.652 Z M307.668,431.335 L275.724,451.054 L234.302,425.485 C233.095,424.739 231.729,424.367 230.362,424.367 C228.995,424.367 227.63,424.74 226.422,425.485 L185.006,451.054 L143.589,425.485 C141.175,423.994 138.124,423.994 135.71,425.485 L94.295,451.054 L62.359,431.337 L56.531,403.11 L90.355,423.993 C92.771,425.484 95.821,425.483 98.235,423.993 L139.65,398.424 L181.067,423.993 C183.481,425.484 186.532,425.484 188.946,423.993 L230.362,398.424 L271.784,423.993 C274.198,425.484 277.249,425.484 279.663,423.993 L313.496,403.109 L307.668,431.335 Z M347.098,314.168 L347.098,328.481 L335.038,328.481 C335.027,328.481 335.015,328.481 335.004,328.481 L120.08,328.481 C115.937,328.481 112.58,331.839 112.58,335.981 C112.58,340.123 115.938,343.481 120.08,343.481 L325.809,343.481 L317.669,382.904 L275.724,408.796 L234.302,383.227 C231.888,381.736 228.837,381.736 226.423,383.227 L185.007,408.796 L143.59,383.227 C141.176,381.736 138.125,381.736 135.711,383.227 L94.296,408.796 L52.359,382.904 L44.219,343.481 L66.676,343.481 C70.819,343.481 74.176,340.123 74.176,335.981 C74.176,331.839 70.818,328.481 66.676,328.481 L35.033,328.481 C35.016,328.481 34.999,328.481 34.982,328.481 L22.929,328.481 L22.929,314.168 L69.971,314.168 L112.938,314.168 L158.375,314.168 L211.652,314.168 L257.089,314.168 L300.056,314.168 L347.098,314.168 Z" id="Shape" fill="#000000"></path>
        </g>
    </g>
</svg>