<?xml version="1.0" encoding="UTF-8"?>
<svg width="340px" height="512px" viewBox="0 0 340 512" version="1.1" xmlns="http://www.w3.org/2000/svg" xmlns:xlink="http://www.w3.org/1999/xlink">
    <!-- Generator: Sketch 48.2 (47327) - http://www.bohemiancoding.com/sketch -->
    <title>cactus (3)</title>
    <desc>Created with Sketch.</desc>
    <defs></defs>
    <g id="Page-1" stroke="none" stroke-width="1" fill="none" fill-rule="evenodd">
        <g id="cactus-(3)" fill-rule="nonzero">
            <g id="Group" transform="translate(7.000000, 7.000000)" fill="#80C56E">
                <path d="M297.046,54.629 C270.375,39.426 236.429,48.722 221.225,75.393 C203.339,106.77 201.681,153.739 202.937,184.447 C194.789,182.124 186.186,180.879 177.293,180.879 C169.057,180.879 161.072,181.95 153.465,183.953 C155.744,144.633 155.666,77.466 133.511,37.134 C114.718,2.924 71.75,-9.574 37.54,9.219 C3.33,28.012 -9.168,70.979 9.625,105.19 C32.799,147.375 86.393,181.631 120.458,200.179 C98.261,217.243 83.95,244.059 83.95,274.221 C83.95,325.773 125.741,431.535 177.293,431.535 C228.845,431.535 270.636,325.773 270.636,274.221 C270.636,244.218 256.477,217.525 234.481,200.449 C261.936,185.108 301.324,159.37 317.81,130.449 C333.014,103.779 323.717,69.833 297.046,54.629 Z" id="Shape"></path>
                <path d="M202.938,184.447 C194.79,182.124 186.187,180.879 177.294,180.879 C169.058,180.879 161.073,181.95 153.466,183.953 C135.515,188.651 120.459,200.179 120.459,200.179 C98.262,217.243 83.951,244.059 83.951,274.221 C83.951,325.773 125.742,431.535 177.294,431.535 C228.846,431.535 270.637,325.773 270.637,274.221 C270.637,244.218 256.478,217.525 234.482,200.449 C212.352,185.609 202.938,184.447 202.938,184.447 Z" id="Shape"></path>
            </g>
            <g id="Group" transform="translate(51.000000, 7.000000)" fill="#66AD66">
                <path d="M97.806,56.226 C95.231,49.421 92.813,43.648 90.705,39.423 C90.309,38.657 89.922,37.882 89.511,37.135 C88.943,36.101 88.351,35.089 87.74,34.096 C87.536,33.764 87.318,33.446 87.109,33.118 C86.693,32.465 86.277,31.812 85.843,31.178 C85.581,30.795 85.306,30.426 85.037,30.049 C84.637,29.489 84.239,28.928 83.825,28.383 C83.526,27.989 83.216,27.606 82.909,27.22 C82.507,26.713 82.106,26.206 81.692,25.712 C81.364,25.321 81.027,24.94 80.692,24.557 C80.282,24.089 79.871,23.622 79.45,23.167 C79.097,22.785 78.737,22.411 78.376,22.038 C77.956,21.603 77.534,21.172 77.104,20.75 C76.728,20.38 76.347,20.017 75.963,19.656 C75.533,19.252 75.1,18.854 74.662,18.463 C74.263,18.107 73.861,17.754 73.455,17.408 C73.019,17.036 72.577,16.671 72.132,16.31 C71.709,15.967 71.286,15.626 70.856,15.294 C70.415,14.953 69.968,14.621 69.519,14.291 C69.073,13.962 68.626,13.633 68.173,13.316 C67.732,13.007 67.285,12.71 66.837,12.412 C66.363,12.096 65.89,11.777 65.41,11.473 C64.979,11.2 64.541,10.942 64.105,10.679 C63.596,10.372 63.088,10.061 62.572,9.767 C62.175,9.541 61.771,9.331 61.37,9.113 C60.803,8.805 60.239,8.492 59.665,8.2 C59.392,8.061 59.112,7.935 58.837,7.8 C56.362,6.582 53.825,5.505 51.232,4.585 C51.107,4.541 50.984,4.491 50.859,4.447 C50.083,4.176 49.299,3.93 48.514,3.687 C48.267,3.61 48.022,3.526 47.773,3.452 C47.02,3.227 46.26,3.024 45.499,2.825 C45.216,2.751 44.935,2.671 44.651,2.6 C43.899,2.413 43.142,2.244 42.384,2.082 C42.089,2.019 41.796,1.952 41.5,1.892 C40.74,1.739 39.976,1.603 39.211,1.475 C38.917,1.426 38.622,1.375 38.327,1.329 C37.552,1.209 36.773,1.104 35.994,1.01 C35.711,0.976 35.428,0.942 35.144,0.911 C34.347,0.825 33.549,0.752 32.748,0.692 C32.485,0.672 32.222,0.655 31.958,0.638 C31.134,0.586 30.309,0.546 29.483,0.523 C29.25,0.516 29.017,0.514 28.784,0.509 C27.925,0.494 27.066,0.489 26.206,0.505 C26.019,0.508 25.832,0.516 25.645,0.521 C24.737,0.545 23.828,0.581 22.918,0.641 C22.81,0.648 22.701,0.659 22.593,0.666 C15.235,1.182 7.871,2.855 0.769,5.776 C13.954,11.169 73.843,53.863 95.398,189.075 C99.687,187.103 104.461,185.264 109.462,183.955 C111.414,150.337 111.627,96.379 97.806,56.226 Z" id="Shape"></path>
                <path d="M190.481,200.45 C168.352,185.609 158.938,184.447 158.938,184.447 C150.79,182.124 142.187,180.879 133.294,180.879 C132.43,180.879 131.571,180.897 130.713,180.921 C133.329,182.594 136.178,184.508 139.286,186.717 C161.283,204.808 175.441,233.087 175.441,264.873 C175.441,310.226 146.622,395.175 107.327,422.687 C115.571,428.296 124.282,431.536 133.293,431.536 C184.845,431.536 226.636,325.774 226.636,274.222 C226.636,244.219 212.477,217.527 190.481,200.45 Z" id="Shape"></path>
                <path d="M113.787,426.531 C114.182,426.733 114.577,426.929 114.974,427.119 C114.577,426.928 114.181,426.732 113.787,426.531 Z" id="Shape"></path>
                <path d="M112.097,425.632 C112.51,425.861 112.924,426.082 113.339,426.299 C112.925,426.082 112.51,425.861 112.097,425.632 Z" id="Shape"></path>
                <path d="M121.288,429.629 C120.462,429.368 119.64,429.082 118.821,428.77 C119.64,429.081 120.462,429.369 121.288,429.629 Z" id="Shape"></path>
                <path d="M107.327,422.687 C127.732,408.401 145.31,378.625 157.497,346.949 C141.252,374.693 120.27,395.597 97.355,395.597 C90.692,395.597 84.195,393.818 77.927,390.63 C87.886,405.932 99.359,418.457 111.79,425.457 C110.288,424.612 108.8,423.689 107.327,422.687 Z" id="Shape"></path>
                <path d="M117.18,428.112 C117.568,428.276 117.956,428.439 118.345,428.592 C117.956,428.44 117.568,428.276 117.18,428.112 Z" id="Shape"></path>
                <path d="M122.596,430.017 C122.286,429.93 121.974,429.847 121.665,429.752 C121.975,429.846 122.286,429.93 122.596,430.017 Z" id="Shape"></path>
                <path d="M115.484,427.359 C115.871,427.539 116.258,427.717 116.647,427.886 C116.258,427.717 115.871,427.54 115.484,427.359 Z" id="Shape"></path>
                <path d="M124.32,430.464 C124.029,430.395 123.737,430.328 123.446,430.253 C123.737,430.327 124.028,430.395 124.32,430.464 Z" id="Shape"></path>
                <path d="M131.473,431.489 C131.267,431.479 131.062,431.461 130.857,431.448 C131.062,431.461 131.267,431.479 131.473,431.489 Z" id="Shape"></path>
                <path d="M253.046,54.629 C249.632,52.683 246.097,51.144 242.499,49.986 C247.093,64.301 257.19,125.218 173.943,190.469 C178.378,192.796 183.855,196.006 190.481,200.45 C217.936,185.109 257.324,159.371 273.81,130.45 C289.014,103.779 279.717,69.833 253.046,54.629 Z" id="Shape"></path>
                <path d="M129.663,431.356 C129.416,431.332 129.17,431.302 128.923,431.274 C129.17,431.302 129.416,431.332 129.663,431.356 Z" id="Shape"></path>
                <path d="M126.08,430.84 C125.802,430.787 125.524,430.733 125.247,430.675 C125.525,430.733 125.802,430.787 126.08,430.84 Z" id="Shape"></path>
                <path d="M127.865,431.139 C127.599,431.101 127.334,431.059 127.069,431.016 C127.335,431.059 127.6,431.101 127.865,431.139 Z" id="Shape"></path>
            </g>
            <path d="M265.062,504.5 L112.639,504.5 C104.072,504.5 96.314,498.032 94.586,489.348 L68.266,368.835 L309.435,368.835 L283.115,489.348 C281.387,498.032 273.629,504.5 265.062,504.5 Z" id="Shape" fill="#FEC37D"></path>
            <path d="M258.433,368.835 L232.113,489.348 C230.385,498.032 222.627,504.5 214.06,504.5 L265.062,504.5 C273.629,504.5 281.387,498.032 283.115,489.348 L309.435,368.835 L258.433,368.835 Z" id="Shape" fill="#F9AE5D"></path>
            <path d="M322.026,388.143 L55.675,388.143 C52.978,388.143 50.791,385.956 50.791,383.259 L50.791,364.603 C50.791,361.906 52.978,359.719 55.675,359.719 L322.026,359.719 C324.723,359.719 326.91,361.906 326.91,364.603 L326.91,383.259 C326.91,385.957 324.723,388.143 322.026,388.143 Z" id="Shape" fill="#F2A559"></path>
            <path d="M322.026,359.72 L276.085,359.72 L276.085,388.143 L322.026,388.143 C324.723,388.143 326.91,385.956 326.91,383.259 L326.91,364.603 C326.91,361.906 324.723,359.72 322.026,359.72 Z" id="Shape" fill="#EA8F3D"></path>
            <path d="M137.425,251.71 L135.378,244.08 C134.305,240.079 130.191,237.706 126.191,238.779 C122.19,239.852 119.817,243.966 120.89,247.966 L122.937,255.596 C123.835,258.946 126.865,261.155 130.176,261.155 C130.82,261.155 131.473,261.072 132.124,260.897 C136.125,259.825 138.498,255.711 137.425,251.71 Z" id="Shape" fill="#000000"></path>
            <path d="M137.425,151.336 L135.379,143.705 C134.306,139.704 130.191,137.334 126.191,138.404 C122.19,139.477 119.817,143.591 120.89,147.592 L122.936,155.223 C123.835,158.573 126.865,160.782 130.176,160.782 C130.82,160.782 131.473,160.699 132.124,160.524 C136.125,159.451 138.498,155.337 137.425,151.336 Z" id="Shape" fill="#000000"></path>
            <path d="M246.656,155.223 C247.554,158.573 250.585,160.782 253.896,160.782 C254.54,160.782 255.193,160.699 255.844,160.524 C259.845,159.451 262.218,155.338 261.145,151.337 L259.098,143.706 C258.025,139.705 253.914,137.335 249.91,138.405 C245.909,139.478 243.536,143.592 244.609,147.593 L246.656,155.223 Z" id="Shape" fill="#000000"></path>
            <path d="M107.903,70.29 C103.902,71.363 101.529,75.477 102.602,79.477 L104.649,87.107 C105.547,90.457 108.577,92.666 111.888,92.666 C112.532,92.666 113.185,92.582 113.836,92.408 C117.837,91.335 120.21,87.221 119.137,83.221 L117.09,75.591 C116.018,71.589 111.904,69.217 107.903,70.29 Z" id="Shape" fill="#000000"></path>
            <path d="M252.872,110.281 C253.516,110.281 254.17,110.198 254.82,110.023 C258.821,108.95 261.194,104.836 260.121,100.836 L258.074,93.206 C257,89.205 252.884,86.833 248.886,87.905 C244.885,88.978 242.512,93.092 243.585,97.092 L245.632,104.722 C246.532,108.072 249.561,110.281 252.872,110.281 Z" id="Shape" fill="#000000"></path>
            <path d="M44.727,74.105 C40.726,75.178 38.353,79.292 39.426,83.292 L41.473,90.922 C42.371,94.272 45.401,96.481 48.712,96.481 C49.356,96.481 50.009,96.398 50.66,96.223 C54.661,95.15 57.034,91.036 55.961,87.036 L53.914,79.406 C52.841,75.404 48.728,73.033 44.727,74.105 Z" id="Shape" fill="#000000"></path>
            <path d="M171.59,291.502 C172.489,294.852 175.519,297.061 178.83,297.061 C179.474,297.061 180.128,296.978 180.778,296.803 C184.779,295.73 187.152,291.616 186.079,287.616 L184.032,279.986 C182.958,275.985 178.842,273.614 174.844,274.685 C170.843,275.758 168.47,279.872 169.543,283.872 L171.59,291.502 Z" id="Shape" fill="#000000"></path>
            <path d="M148.881,321.901 C144.88,322.974 142.507,327.088 143.58,331.089 L145.626,338.72 C146.525,342.07 149.555,344.279 152.866,344.279 C153.51,344.279 154.163,344.196 154.814,344.021 C158.815,342.948 161.188,338.835 160.115,334.834 L158.069,327.203 C156.995,323.202 152.881,320.831 148.881,321.901 Z" id="Shape" fill="#000000"></path>
            <path d="M225.819,253.268 C229.82,252.195 232.193,248.081 231.12,244.081 L229.073,236.451 C227.999,232.45 223.884,230.078 219.885,231.15 C215.884,232.223 213.511,236.337 214.584,240.337 L216.631,247.967 C217.53,251.317 220.56,253.526 223.871,253.526 C224.514,253.526 225.169,253.442 225.819,253.268 Z" id="Shape" fill="#000000"></path>
            <path d="M180.626,233.2 L183.697,225.921 C185.307,222.105 183.519,217.705 179.703,216.095 C175.886,214.484 171.488,216.273 169.876,220.09 L166.805,227.369 C165.195,231.185 166.983,235.585 170.8,237.195 C171.752,237.597 172.74,237.787 173.713,237.787 C176.638,237.787 179.417,236.065 180.626,233.2 Z" id="Shape" fill="#000000"></path>
            <path d="M82.307,118.699 C78.49,117.089 74.091,118.877 72.481,122.694 L69.41,129.973 C67.8,133.789 69.588,138.189 73.405,139.799 C74.357,140.201 75.345,140.391 76.317,140.391 C79.242,140.391 82.022,138.669 83.231,135.804 L86.302,128.525 C87.912,124.709 86.124,120.31 82.307,118.699 Z" id="Shape" fill="#000000"></path>
            <path d="M297.022,103.57 C293.205,101.959 288.806,103.748 287.195,107.564 L284.124,114.843 C282.514,118.66 284.302,123.059 288.118,124.67 C289.07,125.072 290.059,125.262 291.031,125.262 C293.956,125.262 296.735,123.54 297.944,120.676 L301.015,113.397 C302.627,109.58 300.838,105.18 297.022,103.57 Z" id="Shape" fill="#000000"></path>
            <path d="M82.308,33.404 C78.49,31.793 74.092,33.582 72.481,37.398 L69.41,44.677 C67.8,48.494 69.588,52.893 73.404,54.504 C74.356,54.906 75.345,55.096 76.317,55.096 C79.242,55.096 82.022,53.374 83.231,50.51 L86.302,43.231 C87.912,39.414 86.124,35.015 82.308,33.404 Z" id="Shape" fill="#000000"></path>
            <path d="M206.169,315.375 L203.099,322.654 C201.489,326.471 203.278,330.87 207.094,332.48 C208.046,332.882 209.034,333.072 210.006,333.072 C212.931,333.072 215.711,331.35 216.919,328.485 L219.989,321.206 C221.599,317.389 219.81,312.99 215.994,311.38 C212.179,309.768 207.778,311.557 206.169,315.375 Z" id="Shape" fill="#000000"></path>
            <path d="M242.492,301.195 C245.417,301.195 248.197,299.472 249.405,296.608 L252.475,289.329 C254.085,285.512 252.296,281.113 248.48,279.503 C244.662,277.893 240.264,279.681 238.654,283.498 L235.584,290.777 C233.974,294.594 235.763,298.993 239.579,300.603 C240.532,301.005 241.519,301.195 242.492,301.195 Z" id="Shape" fill="#000000"></path>
            <path d="M125.681,298.079 C121.864,296.469 117.465,298.258 115.855,302.074 L112.784,309.353 C111.174,313.17 112.962,317.569 116.779,319.179 C117.731,319.581 118.719,319.771 119.691,319.771 C122.616,319.771 125.396,318.049 126.605,315.184 L129.676,307.905 C131.287,304.089 129.498,299.69 125.681,298.079 Z" id="Shape" fill="#000000"></path>
            <path d="M322.026,352.22 L270.242,352.22 C279.645,326.678 285.137,300.763 285.137,281.222 C285.137,253.524 274.046,227.641 254.373,208.698 C267.106,201.188 278.691,193.487 288.912,185.734 C292.213,183.23 292.859,178.526 290.355,175.225 C287.852,171.926 283.146,171.279 279.847,173.782 C267.758,182.951 253.62,192.075 237.823,200.902 C235.627,202.13 234.192,204.376 234.003,206.885 C233.814,209.394 234.895,211.831 236.882,213.374 C258.016,229.781 270.137,254.51 270.137,281.222 C270.137,300.092 264.083,326.912 254.203,352.22 L114.385,352.22 C104.505,326.913 98.451,300.092 98.451,281.222 C98.451,254.351 110.69,229.531 132.03,213.126 C134.042,211.58 135.135,209.121 134.936,206.592 C134.737,204.063 133.273,201.806 131.045,200.592 C100.513,183.968 45.902,149.908 23.198,108.579 C15.074,93.789 13.195,76.721 17.908,60.518 C22.621,44.315 33.362,30.917 48.151,22.793 C78.683,6.022 117.165,17.216 133.937,47.746 C155.434,86.879 155.094,153.996 152.977,190.52 C152.838,192.918 153.856,195.238 155.716,196.759 C157.575,198.28 160.052,198.819 162.374,198.207 C177.198,194.305 193.181,194.47 207.88,198.66 C210.195,199.322 212.687,198.829 214.577,197.34 C216.468,195.851 217.529,193.545 217.432,191.14 C214.952,130.522 227.213,99.315 234.741,86.107 C241.102,74.948 251.427,66.935 263.816,63.542 C276.203,60.149 289.172,61.784 300.331,68.145 C323.366,81.276 331.424,110.7 318.295,133.734 C317.548,135.045 316.734,136.371 315.879,137.678 C313.61,141.143 314.581,145.793 318.046,148.061 C321.513,150.329 326.161,149.36 328.43,145.894 C329.453,144.332 330.426,142.742 331.326,141.164 C348.553,110.942 337.981,72.34 307.759,55.113 C293.12,46.767 276.106,44.623 259.853,49.074 C243.6,53.525 230.055,64.04 221.71,78.679 C205.009,107.977 201.621,149.343 202.161,181.96 C191.087,179.98 179.579,179.862 168.436,181.625 C170.048,142.159 168.521,79.546 147.085,40.524 C126.331,2.743 78.711,-11.11 40.93,9.646 C3.149,30.4 -10.703,78.021 10.052,115.801 C22.332,138.156 50.389,171.973 114.421,208.499 C94.615,227.455 83.451,253.402 83.451,281.221 C83.451,300.763 88.942,326.678 98.345,352.219 L55.676,352.219 C48.847,352.219 43.292,357.774 43.292,364.603 L43.292,383.259 C43.292,390.088 48.847,395.643 55.676,395.643 L66.444,395.643 L87.245,490.884 C89.677,502.928 100.581,512 112.639,512 L265.062,512 C277.12,512 288.024,502.927 290.456,490.884 L311.256,395.644 L322.026,395.644 C328.854,395.644 334.41,390.089 334.41,383.26 L334.41,364.604 C334.41,357.775 328.854,352.22 322.026,352.22 Z M275.787,487.747 C275.777,487.792 275.767,487.838 275.759,487.884 C274.741,492.996 270.043,496.999 265.062,496.999 L112.639,496.999 C107.658,496.999 102.959,492.995 101.943,487.884 C101.934,487.838 101.924,487.793 101.914,487.747 L92.312,443.784 L113.188,456.672 C114.396,457.418 115.762,457.79 117.128,457.79 C118.494,457.79 119.861,457.417 121.068,456.672 L152.996,436.961 L184.926,456.672 C187.34,458.163 190.391,458.163 192.805,456.672 L224.734,436.961 L256.667,456.672 C259.081,458.163 262.132,458.163 264.546,456.672 L285.382,443.811 L275.787,487.747 Z M319.41,380.643 L305.32,380.643 C305.31,380.643 305.301,380.643 305.291,380.643 L155.331,380.643 C151.189,380.643 147.831,384.001 147.831,388.143 C147.831,392.285 151.189,395.643 155.331,395.643 L295.903,395.643 L289.833,423.436 L260.607,441.475 L228.674,421.764 C226.26,420.273 223.209,420.273 220.795,421.764 L188.866,441.475 L156.937,421.764 C154.522,420.273 151.472,420.273 149.057,421.764 L117.129,441.475 L87.863,423.406 L81.799,395.642 L101.329,395.642 C105.471,395.642 108.829,392.284 108.829,388.142 C108.829,384 105.471,380.642 101.329,380.642 L72.406,380.642 C72.399,380.642 72.392,380.642 72.385,380.642 L58.293,380.642 L58.293,367.22 L109.315,367.22 L259.274,367.22 L319.411,367.22 L319.41,380.643 Z" id="Shape" fill="#000000"></path>
        </g>
    </g>
</svg>