<svg width="340px" height="512px" viewBox="0 0 340 512" version="1.1" xmlns="http://www.w3.org/2000/svg" xmlns:xlink="http://www.w3.org/1999/xlink">
    <g stroke="none" stroke-width="1" fill="none" fill-rule="evenodd">
        <g id="cactus-(1)" fill-rule="nonzero">
            <path d="M237.216,278.5 L198.526,278.5 L198.526,225.678 L237.216,225.678 C260.202,225.678 278.837,207.044 278.837,184.057 L278.837,111.41 C278.837,96.824 290.662,84.999 305.248,84.999 C319.834,84.999 331.659,96.824 331.659,111.41 L331.659,184.057 C331.658,236.217 289.375,278.5 237.216,278.5 Z" id="Shape" fill="#80C56E" />
            <path d="M305.247,85 L305.247,185.57 C305.247,221.338 276.251,250.334 240.483,250.334 L198.525,250.334 L198.525,278.5 L237.215,278.5 C289.374,278.5 331.658,236.217 331.658,184.058 L331.658,111.411 C331.658,96.825 319.833,85 305.247,85 Z" id="Shape" fill="#66AD66" />
            <path d="M162.342,205.537 L67.869,205.537 C34.993,205.537 8.342,178.886 8.342,146.01 L8.342,96.995 C8.342,82.546 20.055,70.834 34.503,70.834 C48.952,70.834 60.664,82.547 60.664,96.995 L60.664,146.01 C60.664,149.989 63.89,153.215 67.869,153.215 L162.342,153.215 L162.342,205.537 Z" id="Shape" fill="#80C56E" />
            <path d="M66.542,177.52 L162.342,177.52 L162.342,153.214 L67.869,153.214 C63.89,153.214 60.664,149.988 60.664,146.009 L60.664,96.995 C60.664,82.546 48.951,70.834 34.503,70.834 L34.503,145.482 C34.503,163.176 48.848,177.52 66.542,177.52 Z" id="Shape" fill="#66AD66" />
            <path d="M169.748,7.5 C139.549,7.5 115.068,31.981 115.068,62.179 L115.068,390.333 L224.427,390.333 L224.427,62.179 C224.428,31.981 199.947,7.5 169.748,7.5 Z" id="Shape" fill="#80C56E" />
            <path d="M169.748,7.5 C159.028,7.5 150.337,35.333 150.337,78.911 L150.337,390.333 L189.159,390.333 L189.159,78.911 C189.159,35.667 180.469,7.5 169.748,7.5 Z" id="Shape" fill="#66AD66" />
            <path d="M189.159,390.333 L189.159,78.911 C189.159,35.667 180.468,7.5 169.748,7.5 L169.748,390.333 L189.159,390.333 Z" id="Shape" fill="#61A361" />
            <path d="M239.265,504.5 L100.232,504.5 C81.635,504.5 66.56,489.424 66.56,470.828 L66.56,373.276 L272.937,373.276 L272.937,470.828 C272.937,489.424 257.861,504.5 239.265,504.5 Z" id="Shape" fill="#FEC37D" />
            <path d="M221.525,373.276 L221.525,470.828 C221.525,489.425 206.449,504.5 187.853,504.5 L239.265,504.5 C257.862,504.5 272.937,489.424 272.937,470.828 L272.937,373.276 L221.525,373.276 Z" id="Shape" fill="#F9AE5D" />
            <path d="M285.062,387.406 L54.435,387.406 C51.607,387.406 49.315,385.114 49.315,382.286 L49.315,364.266 C49.315,361.438 51.607,359.146 54.435,359.146 L285.062,359.146 C287.89,359.146 290.182,361.438 290.182,364.266 L290.182,382.286 C290.182,385.114 287.89,387.406 285.062,387.406 Z" id="Shape" fill="#F2A559" />
            <path d="M285.062,359.146 L239.432,359.146 L239.432,387.406 L285.062,387.406 C287.89,387.406 290.182,385.114 290.182,382.286 L290.182,364.266 C290.182,361.438 287.89,359.146 285.062,359.146 Z" id="Shape" fill="#EA8F3D" />
            <path d="M305.247,77.5 C286.549,77.5 271.336,92.712 271.336,111.411 L271.336,184.057 C271.336,202.871 256.029,218.178 237.216,218.178 L231.928,218.178 L231.928,62.18 C231.928,27.894 204.034,0 169.748,0 C135.463,0 107.569,27.894 107.569,62.18 L107.569,145.715 L68.165,145.715 L68.165,96.995 C68.165,78.434 53.064,63.333 34.503,63.333 C15.942,63.333 0.842,78.434 0.842,96.995 L0.842,146.01 C0.842,182.969 30.91,213.037 67.869,213.037 L107.569,213.037 L107.569,351.646 L54.434,351.646 C47.475,351.646 41.814,357.307 41.814,364.266 L41.814,382.286 C41.814,389.244 47.475,394.906 54.434,394.906 L59.059,394.906 L59.059,470.827 C59.059,493.53 77.529,511.999 100.232,511.999 L239.264,511.999 C261.967,511.999 280.437,493.529 280.437,470.827 L280.437,394.906 L285.062,394.906 C292.021,394.906 297.682,389.244 297.682,382.286 L297.682,364.266 C297.682,357.307 292.021,351.646 285.062,351.646 L231.927,351.646 L231.927,286 L237.215,286 C293.426,286 339.157,240.269 339.157,184.058 L339.157,111.412 C339.158,92.712 323.945,77.5 305.247,77.5 Z M157.838,78.911 C157.838,35.985 166.173,17.811 169.734,15.178 C173.154,17.761 181.222,35.093 181.642,75.701 C181.685,79.817 185.035,83.123 189.14,83.123 C189.166,83.123 189.194,83.123 189.22,83.123 C193.362,83.08 196.685,79.687 196.642,75.546 C196.527,64.428 195.506,37.529 188.779,19.024 C205.339,26.356 216.927,42.935 216.927,62.18 L216.927,225.679 L216.927,278.5 L216.927,351.646 L196.658,351.646 L196.658,128.875 C196.658,124.733 193.301,121.375 189.158,121.375 C185.015,121.375 181.658,124.733 181.658,128.875 L181.658,351.646 L157.837,351.646 L157.837,78.911 L157.838,78.911 Z M122.569,205.537 L122.569,153.214 L122.569,62.18 C122.569,42.971 134.114,26.418 150.625,19.065 C143.625,38.411 142.838,67.135 142.838,78.911 L142.838,351.646 L122.569,351.646 L122.569,205.537 Z M42.003,79.919 C48.567,82.813 53.165,89.373 53.165,96.995 L53.165,146.01 C53.165,154.118 59.762,160.715 67.869,160.715 L107.569,160.715 L107.569,170.021 L66.542,170.021 C53.011,170.021 42.003,159.013 42.003,145.482 L42.003,79.919 Z M67.869,198.037 C39.181,198.037 15.842,174.698 15.842,146.01 L15.842,96.995 C15.842,89.374 20.44,82.815 27.003,79.92 L27.003,145.481 C27.003,167.283 44.74,185.02 66.542,185.02 L107.569,185.02 L107.569,198.037 L67.869,198.037 Z M282.683,366.646 L282.683,379.906 L147.75,379.906 C143.607,379.906 140.25,383.264 140.25,387.406 C140.25,391.548 143.607,394.906 147.75,394.906 L265.438,394.906 L265.438,470.827 C265.438,485.259 253.697,496.999 239.265,496.999 L100.232,496.999 C85.8,496.999 74.059,485.258 74.059,470.827 L74.059,394.906 L94.249,394.906 C98.392,394.906 101.749,391.548 101.749,387.406 C101.749,383.264 98.392,379.906 94.249,379.906 L56.813,379.906 L56.813,366.646 L115.068,366.646 L150.337,366.646 L189.158,366.646 L224.427,366.646 L282.683,366.646 Z M231.928,233.178 L237.216,233.178 C264.301,233.178 286.336,211.142 286.336,184.057 L286.336,111.411 C286.336,103.648 291.042,96.968 297.747,94.059 L297.747,185.569 C297.747,217.145 272.059,242.833 240.483,242.833 L231.927,242.833 L231.927,233.178 L231.928,233.178 Z M324.158,184.058 C324.158,231.998 285.156,271 237.216,271 L231.928,271 L231.928,257.833 L240.484,257.833 C280.331,257.833 312.748,225.416 312.748,185.569 L312.748,94.059 C319.454,96.969 324.159,103.648 324.159,111.411 L324.159,184.058 L324.158,184.058 Z" id="Shape" fill="#000000" />
        </g>
    </g>
</svg>