<?xml version="1.0" encoding="UTF-8"?>
<svg width="102px" height="23px" viewBox="0 0 102 23" version="1.1" xmlns="http://www.w3.org/2000/svg" xmlns:xlink="http://www.w3.org/1999/xlink">
    <!-- Generator: Sketch 48.2 (47327) - http://www.bohemiancoding.com/sketch -->
    <title>cactus</title>
    <desc>Created with Sketch.</desc>
    <defs></defs>
    <g id="Page-1" stroke="none" stroke-width="1" fill="none" fill-rule="evenodd">
        <path d="M9.375,22.5859375 C7.49999063,22.5859375 5.92123037,22.2083371 4.63867188,21.453125 C3.35611338,20.6979129 2.39583652,19.6595118 1.7578125,18.3378906 C1.11978848,17.0162694 0.80078125,15.5026127 0.80078125,13.796875 C0.80078125,11.7786357 1.25976104,10.0078201 2.17773438,8.484375 C3.09570771,6.96092988 4.2805917,5.79232178 5.73242188,4.97851562 C7.18425205,4.16470947 8.67186738,3.7578125 10.1953125,3.7578125 C11.2630262,3.7578125 12.1874961,3.93033682 12.96875,4.27539062 C13.7500039,4.62044443 14.3424459,5.08593457 14.7460938,5.671875 C15.1497416,6.25781543 15.3515625,6.90885059 15.3515625,7.625 C15.3515625,8.4453166 15.0618519,9.08333105 14.4824219,9.5390625 C13.9029919,9.99479395 13.1184945,10.2682287 12.1289063,10.359375 C11.6731748,9.05728516 11.2044295,8.0970083 10.7226562,7.47851562 C10.240883,6.86002295 9.66146172,6.55078125 8.984375,6.55078125 C7.96874492,6.55078125 7.18750273,7.01301621 6.640625,7.9375 C6.09374727,8.86198379 5.8203125,10.2226473 5.8203125,12.0195312 C5.8203125,13.1393285 6.01887822,14.2493435 6.41601563,15.3496094 C6.81315303,16.4498753 7.40559502,17.3613245 8.19335938,18.0839844 C8.98112373,18.8066442 9.93489023,19.1679688 11.0546875,19.1679688 C11.9921922,19.1679688 12.7799447,19.0605479 13.4179688,18.8457031 C14.0559928,18.6308583 14.726559,18.3085959 15.4296875,17.8789062 L16.0546875,19.4609375 C15.7161441,20.0208361 15.2050815,20.5416643 14.5214844,21.0234375 C13.8378872,21.5052107 13.0468795,21.8860663 12.1484375,22.1660156 C11.2499955,22.4459649 10.3255256,22.5859375 9.375,22.5859375 Z M21.3671875,22.46875 C20.1562439,22.46875 19.176436,22.1269565 18.4277344,21.4433594 C17.6790327,20.7597622 17.3046875,19.7864646 17.3046875,18.5234375 C17.3046875,17.429682 17.6399706,16.4205775 18.3105469,15.4960938 C18.9811231,14.57161 19.9869725,13.8164092 21.328125,13.2304688 C22.6692775,12.6445283 24.3163965,12.3190107 26.2695312,12.2539062 L26.2695312,10.7890625 C26.2695312,9.60416074 26.0156275,8.6145873 25.5078125,7.8203125 C24.9999975,7.0260377 24.2708381,6.62890625 23.3203125,6.62890625 C22.8515602,6.62890625 22.496746,6.76236846 22.2558594,7.02929688 C22.0149728,7.29622529 21.8424484,7.70963262 21.7382812,8.26953125 C21.6341141,8.82942988 21.5364588,9.68228594 21.4453125,10.828125 C20.3775988,10.828125 19.5117221,10.6783869 18.8476562,10.3789062 C18.1835904,10.0794256 17.8515625,9.46745254 17.8515625,8.54296875 C17.8515625,7.83984023 18.2714802,7.13021191 19.1113281,6.4140625 C19.9511761,5.69791309 20.9960875,5.10872627 22.2460938,4.64648438 C23.4961,4.18424248 24.6744736,3.953125 25.78125,3.953125 C27.4218832,3.953125 28.6783811,4.43163584 29.5507812,5.38867188 C30.4231814,6.34570791 30.859375,7.865875 30.859375,9.94921875 L30.859375,16.1015625 C30.859375,16.8697955 30.8854164,17.416665 30.9375,17.7421875 C30.9895836,18.06771 31.1425769,18.3313792 31.3964844,18.5332031 C31.6503919,18.7350271 32.0898406,18.8945307 32.7148438,19.0117188 L33.4765625,19.1484375 L33.1054688,21.6484375 C32.6627582,21.9218764 32.2167991,22.1171869 31.7675781,22.234375 C31.3183571,22.3515631 30.7291703,22.4101562 30,22.4101562 C28.9973908,22.4101562 28.2714866,22.1822939 27.8222656,21.7265625 C27.3730446,21.2708311 27.0572926,20.639327 26.875,19.8320312 L26.8164062,19.5585938 L26.5820312,19.5 C26.3867178,19.9557314 26.038414,20.4114561 25.5371094,20.8671875 C25.0358048,21.3229189 24.4238317,21.7037745 23.7011719,22.0097656 C22.978512,22.3157567 22.200525,22.46875 21.3671875,22.46875 Z M26.2695312,17.8789062 L26.2695312,13.9335938 C24.7070234,14.1940117 23.5904981,14.6106742 22.9199219,15.1835938 C22.2493456,15.7565133 21.9140625,16.4205691 21.9140625,17.1757812 C21.9140625,17.6575545 22.0800765,18.0872377 22.4121094,18.4648438 C22.7441423,18.8424498 23.1966117,19.03125 23.7695312,19.03125 C24.1992209,19.03125 24.6386696,18.9173188 25.0878906,18.6894531 C25.5371116,18.4615874 25.9309879,18.1914078 26.2695312,17.8789062 Z M43.8085938,22.5859375 C41.9335844,22.5859375 40.3548241,22.2083371 39.0722656,21.453125 C37.7897071,20.6979129 36.8294303,19.6595118 36.1914063,18.3378906 C35.5533822,17.0162694 35.234375,15.5026127 35.234375,13.796875 C35.234375,11.7786357 35.6933548,10.0078201 36.6113281,8.484375 C37.5293015,6.96092988 38.7141854,5.79232178 40.1660156,4.97851562 C41.6178458,4.16470947 43.1054611,3.7578125 44.6289063,3.7578125 C45.6966199,3.7578125 46.6210898,3.93033682 47.4023438,4.27539062 C48.1835977,4.62044443 48.7760396,5.08593457 49.1796875,5.671875 C49.5833354,6.25781543 49.7851563,6.90885059 49.7851563,7.625 C49.7851563,8.4453166 49.4954456,9.08333105 48.9160156,9.5390625 C48.3365856,9.99479395 47.5520883,10.2682287 46.5625,10.359375 C46.1067686,9.05728516 45.6380232,8.0970083 45.15625,7.47851562 C44.6744768,6.86002295 44.0950555,6.55078125 43.4179688,6.55078125 C42.4023387,6.55078125 41.6210965,7.01301621 41.0742188,7.9375 C40.527341,8.86198379 40.2539063,10.2226473 40.2539063,12.0195312 C40.2539063,13.1393285 40.452472,14.2493435 40.8496094,15.3496094 C41.2467468,16.4498753 41.8391888,17.3613245 42.6269531,18.0839844 C43.4147175,18.8066442 44.368484,19.1679688 45.4882813,19.1679688 C46.4257859,19.1679688 47.2135385,19.0605479 47.8515625,18.8457031 C48.4895865,18.6308583 49.1601527,18.3085959 49.8632813,17.8789062 L50.4882813,19.4609375 C50.1497379,20.0208361 49.6386753,20.5416643 48.9550781,21.0234375 C48.271481,21.5052107 47.4804732,21.8860663 46.5820313,22.1660156 C45.6835893,22.4459649 44.7591193,22.5859375 43.8085938,22.5859375 Z M53.6914063,16.5703125 L53.75,7.87890625 L51.5429688,7.87890625 L51.5429688,5.90625 C52.4414107,5.29426777 53.3235634,4.54883252 54.1894531,3.66992188 C55.0553429,2.79101123 55.8333299,1.85677578 56.5234375,0.8671875 L58.6328125,0.8671875 L58.6328125,5.1640625 L64.0625,5.1640625 L63.8671875,7.9375 L58.5742188,7.9375 L58.5351563,15.4375 C58.5351563,16.5703182 58.753253,17.3776018 59.1894531,17.859375 C59.6256532,18.3411482 60.3710885,18.5820312 61.4257813,18.5820312 C61.8033873,18.5820312 62.1777325,18.5201829 62.5488281,18.3964844 C62.9199237,18.2727858 63.2259103,18.145834 63.4667969,18.015625 C63.7076835,17.885416 63.8606768,17.8007814 63.9257813,17.7617188 L64.4140625,19.578125 C63.8281221,20.3984416 63.0371144,21.0820285 62.0410156,21.6289062 C61.0449169,22.175784 59.9023502,22.4492188 58.6132813,22.4492188 C57.4414004,22.4492188 56.4973994,22.2669289 55.78125,21.9023438 C55.0651006,21.5377586 54.5345069,20.9257855 54.1894531,20.0664062 C53.8443993,19.207027 53.6783854,18.041674 53.6914063,16.5703125 Z M68.6132813,16.7851562 L68.6132813,8.9140625 L66.0546875,7.3515625 L66.5234375,4.7734375 L72.6953125,4.36328125 L73.4765625,5.125 L73.4765625,14.3242188 C73.4765625,15.6523504 73.6686179,16.5963514 74.0527344,17.15625 C74.4368509,17.7161486 75.013017,17.9960938 75.78125,17.9960938 C76.4062531,17.9960938 76.940102,17.8951833 77.3828125,17.6933594 C77.825523,17.4915354 78.268227,17.1822937 78.7109375,16.765625 L78.7109375,9.05078125 L76.015625,7.8984375 L76.4453125,4.96875 L82.8125,4.28515625 L83.5351563,5.046875 L83.5351563,16.2578125 C83.5351563,16.9088574 83.6132805,17.4134097 83.7695313,17.7714844 C83.925782,18.1295591 84.166665,18.4029938 84.4921875,18.5917969 C84.81771,18.7805999 85.299476,18.9661449 85.9375,19.1484375 L86.640625,19.34375 L86.328125,21.8046875 C85.6380174,22.0651055 84.9837271,22.2571608 84.3652344,22.3808594 C83.7467417,22.5045579 83.1054721,22.5664062 82.4414063,22.5664062 C81.3997344,22.5664062 80.5794301,22.3190129 79.9804688,21.8242188 C79.3815074,21.3294246 79.0820313,20.6197963 79.0820313,19.6953125 L79.0820313,19.4609375 L78.828125,19.421875 C78.2031219,20.4244842 77.4121142,21.1927057 76.4550781,21.7265625 C75.4980421,22.2604193 74.4791721,22.5273438 73.3984375,22.5273438 C71.7317625,22.5273438 70.5175819,22.0813847 69.7558594,21.1894531 C68.9941368,20.2975216 68.6132813,18.8294373 68.6132813,16.7851562 Z M94.0234375,22.6835938 C92.9166611,22.6835938 91.8847704,22.520835 90.9277344,22.1953125 C89.9706983,21.86979 89.2089872,21.4270861 88.6425781,20.8671875 C88.076169,20.3072889 87.7929688,19.6822951 87.7929688,18.9921875 C87.7929688,18.1848918 88.0729139,17.5273463 88.6328125,17.0195312 C89.1927111,16.5117162 89.967443,16.2187504 90.9570312,16.140625 C91.3346373,17.4557357 91.8424447,18.4550747 92.4804688,19.1386719 C93.1184928,19.822269 93.8216107,20.1640625 94.5898438,20.1640625 C95.3580768,20.1640625 95.9440084,20.0403658 96.3476562,19.7929688 C96.7513041,19.5455717 96.953125,19.1354195 96.953125,18.5625 C96.953125,18.2239566 96.8196628,17.9049494 96.5527344,17.6054688 C96.285806,17.3059881 95.9472677,17.0325533 95.5371094,16.7851562 C95.1269511,16.5377592 94.550785,16.2252623 93.8085938,15.8476562 C92.6627547,15.2486949 91.7317744,14.7050806 91.015625,14.2167969 C90.2994756,13.7285132 89.677737,13.1100298 89.1503906,12.3613281 C88.6230442,11.6126265 88.359375,10.7304738 88.359375,9.71484375 C88.359375,8.88150625 88.5970028,8.01888467 89.0722656,7.12695312 C89.5475284,6.23502158 90.2962188,5.48307598 91.3183594,4.87109375 C92.3404999,4.25911152 93.619784,3.953125 95.15625,3.953125 C96.8359459,3.953125 98.1933542,4.23958047 99.2285156,4.8125 C100.263677,5.38541953 100.78125,6.20572383 100.78125,7.2734375 C100.78125,8.0937541 100.475263,8.78059619 99.8632812,9.33398438 C99.251299,9.88737256 98.4830775,10.2031246 97.5585938,10.28125 L97.1679688,9.03125 C96.9075508,7.98957813 96.5104193,7.26041875 95.9765625,6.84375 C95.4427057,6.42708125 94.856774,6.21875 94.21875,6.21875 C93.6328096,6.21875 93.1673194,6.39452949 92.8222656,6.74609375 C92.4772118,7.09765801 92.3046875,7.53385156 92.3046875,8.0546875 C92.3046875,8.45833535 92.4544256,8.82942539 92.7539062,9.16796875 C93.0533869,9.50651211 93.4309873,9.81575381 93.8867188,10.0957031 C94.3424502,10.3756524 94.9674439,10.7174459 95.7617188,11.1210938 C96.9205787,11.7200551 97.8645797,12.2636694 98.59375,12.7519531 C99.3229203,13.2402368 99.9479141,13.8522099 100.46875,14.5878906 C100.989586,15.3235714 101.25,16.1927033 101.25,17.1953125 C101.25,18.289068 100.924482,19.2526 100.273438,20.0859375 C99.6223926,20.919275 98.7467503,21.5605446 97.6464844,22.0097656 C96.5462185,22.4589866 95.3385482,22.6835938 94.0234375,22.6835938 Z" id="cactus" fill="#000000"></path>
    </g>
</svg>