<?xml version="1.0" encoding="UTF-8"?>
<svg width="308px" height="512px" viewBox="0 0 308 512" version="1.1" xmlns="http://www.w3.org/2000/svg" xmlns:xlink="http://www.w3.org/1999/xlink">
    <!-- Generator: Sketch 48.2 (47327) - http://www.bohemiancoding.com/sketch -->
    <title>flower</title>
    <desc>Created with Sketch.</desc>
    <defs></defs>
    <g id="Page-1" stroke="none" stroke-width="1" fill="none" fill-rule="evenodd">
        <g id="flower" fill-rule="nonzero">
            <path d="M299.061,222.148 C299.434,222.262 299.623,222.665 299.471,223.025 C296.945,229.01 277.048,273.905 242.116,290.221 C198.73,310.486 180.741,277.948 180.741,277.948 C180.741,277.948 167.334,243.269 210.72,223.004 C245.652,206.688 292.85,220.244 299.061,222.148 Z" id="Shape" fill="#80C56E"></path>
            <path d="M242.116,290.222 C277.048,273.905 296.945,229.011 299.471,223.026 C299.623,222.666 299.435,222.263 299.061,222.149 L180.74,277.949 C180.74,277.948 198.73,310.486 242.116,290.222 Z" id="Shape" fill="#66AD66"></path>
            <path d="M8.939,222.148 C8.566,222.262 8.377,222.665 8.529,223.025 C11.055,229.01 30.952,273.905 65.884,290.221 C109.27,310.486 127.259,277.948 127.259,277.948 C127.259,277.948 140.666,243.269 97.28,223.004 C62.348,206.688 15.15,220.244 8.939,222.148 Z" id="Shape" fill="#80C56E"></path>
            <path d="M65.884,290.222 C109.27,310.487 127.259,277.949 127.259,277.949 L8.558,222.466 C8.469,222.632 8.447,222.833 8.528,223.026 C11.056,229.01 30.952,273.905 65.884,290.222 Z" id="Shape" fill="#66AD66"></path>
            <g id="Group" transform="translate(132.000000, 7.000000)" fill="#EF4D68">
                <path d="M43.588,25.572 C43.588,45.032 33.923,81.588 22,81.588 C10.077,81.588 0.412,45.033 0.412,25.572 C0.412,6.111 10.077,0.5 22,0.5 C33.923,0.5 43.588,6.112 43.588,25.572 Z" id="Shape"></path>
                <path d="M43.588,171.078 C43.588,151.618 33.923,115.062 22,115.062 C10.077,115.062 0.412,151.617 0.412,171.078 C0.412,190.539 10.077,196.15 22,196.15 C33.923,196.15 43.588,190.538 43.588,171.078 Z" id="Shape"></path>
            </g>
            <g id="Group" transform="translate(77.000000, 29.000000)" fill="#FD747F">
                <path d="M143.709,40.147 C129.949,53.907 97.266,72.921 88.835,64.491 C80.404,56.061 99.418,23.377 113.179,9.617 C126.94,-4.143 137.742,-1.277 146.173,7.153 C154.604,15.583 157.47,26.386 143.709,40.147 Z" id="Shape"></path>
                <path d="M40.821,143.034 C54.581,129.274 73.595,96.591 65.165,88.16 C56.735,79.729 24.051,98.743 10.291,112.504 C-3.469,126.264 -0.603,137.067 7.827,145.498 C16.258,153.929 27.061,156.795 40.821,143.034 Z" id="Shape"></path>
            </g>
            <g id="Group" transform="translate(56.000000, 83.000000)" fill="#EF4D68">
                <path d="M170.753,43.914 C151.293,43.914 114.737,34.249 114.737,22.326 C114.737,10.403 151.292,0.738 170.753,0.738 C190.214,0.738 195.826,10.403 195.826,22.326 C195.826,34.249 190.213,43.914 170.753,43.914 Z" id="Shape"></path>
                <path d="M25.247,43.914 C44.707,43.914 81.263,34.249 81.263,22.326 C81.263,10.403 44.708,0.738 25.247,0.738 C5.786,0.738 0.175,10.403 0.175,22.326 C0.175,34.249 5.787,43.914 25.247,43.914 Z" id="Shape"></path>
            </g>
            <g id="Group" transform="translate(77.000000, 29.000000)" fill="#FD747F">
                <path d="M113.179,143.034 C99.419,129.274 80.405,96.591 88.835,88.16 C97.265,79.729 129.949,98.743 143.709,112.504 C157.469,126.264 154.603,137.067 146.173,145.498 C137.742,153.929 126.939,156.795 113.179,143.034 Z" id="Shape"></path>
                <path d="M10.291,40.147 C24.051,53.907 56.734,72.921 65.165,64.491 C73.596,56.061 54.582,23.377 40.821,9.617 C27.061,-4.143 16.258,-1.277 7.827,7.153 C-0.604,15.583 -3.47,26.386 10.291,40.147 Z" id="Shape"></path>
            </g>
            <g id="Group" transform="translate(57.000000, 79.000000)" fill="#FEC37D">
                <circle id="Oval" cx="97" cy="26.33" r="25.736"></circle>
                <path d="M153.693,425.5 L40.307,425.5 C35.643,425.5 31.625,422.212 30.702,417.64 L0.663,268.823 L193.337,268.823 L163.298,417.64 C162.375,422.212 158.357,425.5 153.693,425.5 Z" id="Shape"></path>
            </g>
            <path d="M200.337,347.823 L170.298,496.64 C169.375,501.212 165.357,504.5 160.693,504.5 L210.693,504.5 C215.357,504.5 219.375,501.212 220.298,496.64 L250.337,347.823 L200.337,347.823 Z" id="Shape" fill="#F9AE5D"></path>
            <path d="M264.949,374.336 L43.051,374.336 C40.221,374.336 37.927,372.042 37.927,369.212 L37.927,342.653 C37.927,339.823 40.221,337.529 43.051,337.529 L264.948,337.529 C267.778,337.529 270.072,339.823 270.072,342.653 L270.072,369.212 C270.073,372.042 267.779,374.336 264.949,374.336 Z" id="Shape" fill="#F2A559"></path>
            <g id="Group" transform="translate(181.000000, 337.000000)" fill="#EA8F3D">
                <path d="M83.949,0.529 L38.25,0.529 L38.25,37.336 L83.948,37.336 C86.778,37.336 89.072,35.042 89.072,32.212 L89.072,5.653 C89.073,2.823 86.779,0.529 83.949,0.529 Z" id="Shape"></path>
                <polygon id="Shape" points="0.944 101.942 50.944 101.942 52.235 95.547 53.972 86.942 3.972 86.942"></polygon>
            </g>
            <path d="M178.321,287.356 C181.142,290.672 185.446,294.813 191.471,298.215 C197.257,301.482 205.236,304.35 215.415,304.35 C223.859,304.35 233.817,302.376 245.29,297.017 C284.98,278.478 305.84,227.319 306.708,225.151 C306.722,225.115 306.732,225.078 306.745,225.042 C306.796,224.909 306.84,224.774 306.883,224.638 C306.915,224.536 306.95,224.435 306.978,224.332 C307.017,224.188 307.048,224.041 307.079,223.894 C307.099,223.8 307.122,223.706 307.138,223.611 C307.167,223.442 307.185,223.272 307.202,223.101 C307.209,223.027 307.221,222.954 307.226,222.881 C307.241,222.673 307.243,222.463 307.24,222.253 C307.239,222.216 307.242,222.179 307.241,222.141 C307.212,221.149 306.987,220.146 306.54,219.189 C306.093,218.232 305.469,217.417 304.726,216.758 C304.696,216.731 304.663,216.708 304.633,216.682 C304.476,216.547 304.316,216.417 304.15,216.296 C304.088,216.251 304.022,216.211 303.958,216.168 C303.819,216.074 303.679,215.98 303.534,215.895 C303.447,215.844 303.357,215.8 303.268,215.752 C303.14,215.684 303.012,215.615 302.88,215.555 C302.779,215.508 302.675,215.468 302.572,215.426 C302.445,215.374 302.318,215.323 302.188,215.278 C302.15,215.265 302.114,215.247 302.075,215.235 C299.855,214.509 247.234,197.672 207.545,216.211 C182.242,228.03 174.295,244.76 172.085,256.714 C170.827,263.518 171.241,269.476 171.973,273.768 L161.5,278.66 L161.5,209.92 C171.654,207.846 183.088,200.53 183.088,178.08 C183.088,177.226 183.069,176.338 183.036,175.427 C183.657,176.095 184.271,176.736 184.875,177.34 C192.673,185.139 200.628,189.091 208.525,189.091 C208.597,189.091 208.671,189.091 208.742,189.09 C215.738,189.026 222.377,185.902 228.475,179.804 C236.157,172.122 246.051,156.243 226.012,136.203 C225.408,135.599 224.767,134.985 224.1,134.364 C225.011,134.397 225.899,134.416 226.752,134.416 C255.093,134.416 259.325,116.191 259.325,105.328 C259.325,94.465 255.093,76.239 226.752,76.239 C225.898,76.239 225.011,76.258 224.1,76.291 C224.768,75.67 225.409,75.056 226.012,74.452 C246.052,54.412 236.157,38.533 228.475,30.851 C222.378,24.753 215.739,21.629 208.742,21.564 C200.801,21.522 192.744,25.444 184.874,33.314 C184.27,33.918 183.656,34.559 183.035,35.227 C183.068,34.316 183.087,33.428 183.087,32.574 C183.088,4.231 164.864,0 154,0 C143.136,0 124.912,4.231 124.912,32.572 C124.912,33.426 124.931,34.314 124.964,35.225 C124.343,34.557 123.729,33.916 123.125,33.312 C115.326,25.513 107.372,21.561 99.475,21.561 C99.403,21.561 99.329,21.561 99.258,21.562 C92.261,21.626 85.622,24.751 79.525,30.849 C71.843,38.531 61.949,54.41 81.989,74.45 C82.593,75.054 83.234,75.668 83.901,76.289 C82.99,76.256 82.102,76.237 81.248,76.237 C52.907,76.237 48.675,94.462 48.675,105.326 C48.675,116.19 52.907,134.414 81.248,134.414 C82.102,134.414 82.989,134.395 83.901,134.362 C83.233,134.983 82.592,135.597 81.989,136.201 C61.949,156.241 71.843,172.12 79.525,179.802 C85.623,185.9 92.262,189.024 99.258,189.088 C99.33,189.089 99.403,189.089 99.475,189.089 C107.371,189.089 115.328,185.136 123.125,177.338 C123.729,176.734 124.343,176.093 124.964,175.425 C124.931,176.336 124.912,177.224 124.912,178.078 C124.912,200.528 136.346,207.844 146.5,209.918 L146.5,278.658 L136.027,273.766 C136.759,269.474 137.173,263.516 135.915,256.712 C133.705,244.758 125.758,228.028 100.455,216.209 C60.765,197.67 8.145,214.508 5.925,215.233 C5.886,215.246 5.849,215.264 5.811,215.277 C5.684,215.321 5.559,215.371 5.434,215.422 C5.328,215.465 5.222,215.506 5.118,215.554 C4.99,215.613 4.866,215.679 4.742,215.745 C4.649,215.795 4.554,215.841 4.463,215.894 C4.324,215.975 4.191,216.065 4.058,216.155 C3.988,216.202 3.915,216.246 3.847,216.296 C3.688,216.411 3.537,216.536 3.387,216.664 C3.349,216.696 3.308,216.726 3.271,216.759 C3.09,216.92 2.915,217.091 2.749,217.271 C2.745,217.275 2.741,217.278 2.738,217.282 C2.229,217.834 1.795,218.472 1.46,219.188 C1.013,220.145 0.788,221.147 0.759,222.14 C0.758,222.177 0.761,222.214 0.76,222.252 C0.757,222.462 0.76,222.671 0.774,222.88 C0.779,222.954 0.791,223.027 0.798,223.1 C0.815,223.271 0.833,223.441 0.862,223.61 C0.878,223.705 0.901,223.799 0.921,223.893 C0.952,224.04 0.982,224.186 1.022,224.331 C1.05,224.434 1.084,224.535 1.117,224.637 C1.16,224.773 1.204,224.908 1.255,225.041 C1.269,225.077 1.278,225.114 1.292,225.15 C2.161,227.318 23.02,278.477 62.71,297.016 C74.185,302.375 84.14,304.349 92.585,304.349 C102.762,304.349 110.744,301.48 116.529,298.214 C122.554,294.812 126.857,290.671 129.679,287.355 L146.5,295.212 L146.5,330.027 L43.051,330.027 C36.09,330.027 30.426,335.69 30.426,342.652 L30.426,369.211 C30.426,376.172 36.09,381.836 43.051,381.836 L56.877,381.836 L67.189,432.923 C67.193,432.942 67.197,432.962 67.201,432.981 L80.351,498.124 C81.974,506.165 89.105,512 97.308,512 L210.693,512 C218.896,512 226.026,506.165 227.65,498.124 L251.124,381.836 L264.95,381.836 C271.911,381.836 277.575,376.173 277.575,369.211 L277.575,342.652 C277.575,335.691 271.911,330.027 264.95,330.027 L161.5,330.027 L161.5,295.212 L178.321,287.356 Z M238.942,283.426 C223.548,290.616 210.248,291.301 199.411,285.465 C196.7,284.005 194.464,282.292 192.677,280.651 L283.223,238.358 C274.275,253.56 259.243,273.944 238.942,283.426 Z M186.835,259.439 C189.118,247.091 198.222,237.119 213.893,229.799 C234.13,220.347 259.421,221.895 276.842,224.782 L186.315,267.066 C186.216,264.821 186.319,262.23 186.835,259.439 Z M94.107,229.8 C109.5,236.99 118.562,246.749 121.041,258.806 C121.661,261.822 121.782,264.637 121.671,267.06 L31.158,224.783 C48.581,221.897 73.872,220.348 94.107,229.8 Z M108.589,285.465 C97.752,291.302 84.452,290.617 69.058,283.426 C48.821,273.973 33.778,253.585 24.81,238.373 L115.323,280.651 C113.535,282.292 111.299,284.005 108.589,285.465 Z M227.321,423.942 L150.723,423.942 C146.581,423.942 143.223,427.3 143.223,431.442 C143.223,435.584 146.581,438.942 150.723,438.942 L224.293,438.942 L212.946,495.156 C212.73,496.224 211.782,497 210.693,497 L97.308,497 C96.218,497 95.27,496.225 95.055,495.156 L83.708,438.942 L97.709,438.942 C101.851,438.942 105.209,435.584 105.209,431.442 C105.209,427.3 101.851,423.942 97.709,423.942 L80.68,423.942 L72.181,381.836 L235.82,381.836 L227.321,423.942 Z M262.573,366.836 L45.427,366.836 L45.427,345.028 L262.573,345.028 L262.573,366.836 Z M147.461,122.348 C147.314,122.292 147.166,122.246 147.017,122.199 C146.877,122.126 146.738,122.052 146.593,121.987 C142.464,120.148 139.176,116.861 137.337,112.731 C137.272,112.586 137.198,112.447 137.126,112.308 C137.079,112.16 137.034,112.011 136.978,111.864 C136.173,109.771 135.765,107.571 135.765,105.324 C135.765,103.077 136.173,100.877 136.978,98.784 C137.045,98.61 137.1,98.435 137.154,98.26 C137.213,98.144 137.284,98.038 137.338,97.918 C139.178,93.789 142.465,90.501 146.595,88.662 C146.741,88.597 146.881,88.523 147.021,88.449 C147.168,88.403 147.315,88.358 147.461,88.302 C151.648,86.693 156.356,86.693 160.542,88.302 C160.686,88.357 160.831,88.4 160.976,88.446 C161.118,88.52 161.26,88.596 161.408,88.662 C165.538,90.501 168.825,93.789 170.665,97.918 C170.718,98.038 170.79,98.144 170.849,98.26 C170.902,98.436 170.958,98.611 171.025,98.784 C171.83,100.877 172.238,103.077 172.238,105.324 C172.238,107.571 171.83,109.771 171.025,111.864 C170.969,112.011 170.923,112.159 170.877,112.307 C170.804,112.446 170.73,112.585 170.666,112.73 C168.826,116.86 165.539,120.147 161.41,121.986 C161.265,122.051 161.126,122.125 160.986,122.198 C160.838,122.245 160.689,122.29 160.542,122.347 C156.355,123.958 151.645,123.958 147.461,122.348 Z M217.87,169.195 C214.604,172.461 211.574,174.061 208.606,174.089 C208.58,174.089 208.553,174.089 208.527,174.089 C204.754,174.089 200.365,171.614 195.483,166.732 C187.711,158.96 177.711,144.076 173.356,132.344 C176.314,130.226 178.901,127.639 181.019,124.681 C192.751,129.035 207.635,139.035 215.408,146.807 C225.718,157.119 223.849,163.215 217.87,169.195 Z M244.325,105.325 C244.325,113.782 241.337,119.413 226.752,119.413 C215.761,119.413 198.168,115.96 186.793,110.744 C187.087,108.961 187.235,107.151 187.235,105.325 C187.235,103.498 187.087,101.689 186.793,99.905 C198.168,94.689 215.761,91.236 226.752,91.236 C241.337,91.236 244.325,96.869 244.325,105.325 Z M195.482,43.919 C200.399,39.002 204.838,36.493 208.606,36.562 C211.574,36.589 214.605,38.19 217.87,41.456 C223.849,47.435 225.719,53.531 215.407,63.844 C207.634,71.616 192.75,81.616 181.018,85.97 C178.9,83.012 176.313,80.426 173.355,78.307 C177.709,66.575 187.709,51.691 195.482,43.919 Z M154,15 C162.457,15 168.088,17.988 168.088,32.572 C168.088,43.564 164.635,61.157 159.419,72.531 C157.635,72.237 155.826,72.089 154,72.089 C152.174,72.089 150.364,72.237 148.581,72.531 C143.365,61.156 139.912,43.563 139.912,32.572 C139.912,17.988 145.543,15 154,15 Z M90.13,41.456 C93.396,38.19 96.426,36.59 99.394,36.562 C99.42,36.562 99.447,36.562 99.473,36.562 C103.246,36.562 107.635,39.037 112.517,43.919 C120.289,51.691 130.29,66.575 134.644,78.307 C131.686,80.425 129.099,83.012 126.981,85.97 C115.249,81.616 100.365,71.616 92.593,63.844 C82.282,53.531 84.151,47.435 90.13,41.456 Z M63.675,105.325 C63.675,96.868 66.663,91.236 81.248,91.236 C92.239,91.236 109.832,94.689 121.207,99.905 C120.913,101.689 120.765,103.498 120.765,105.325 C120.765,107.151 120.913,108.961 121.207,110.744 C109.832,115.96 92.239,119.413 81.248,119.413 C66.663,119.414 63.675,113.782 63.675,105.325 Z M112.518,166.731 C107.635,171.614 103.247,174.089 99.474,174.088 C99.448,174.088 99.421,174.088 99.395,174.088 C96.427,174.061 93.396,172.46 90.131,169.194 C84.152,163.214 82.282,157.118 92.595,146.806 C100.367,139.034 115.251,129.034 126.983,124.68 C129.101,127.638 131.688,130.225 134.646,132.343 C130.291,144.075 120.291,158.958 112.518,166.731 Z M139.912,178.078 C139.912,167.087 143.365,149.494 148.581,138.119 C152.147,138.708 155.853,138.708 159.42,138.119 C164.636,149.494 168.089,167.087 168.089,178.078 C168.089,192.662 162.457,195.65 154.001,195.65 C145.545,195.65 139.912,192.662 139.912,178.078 Z" id="Shape" fill="#000000"></path>
        </g>
    </g>
</svg>