<?xml version="1.0" encoding="UTF-8"?>
<svg width="104px" height="37px" viewBox="0 0 104 37" version="1.1" xmlns="http://www.w3.org/2000/svg" xmlns:xlink="http://www.w3.org/1999/xlink">
    <!-- Generator: Sketch 48.2 (47327) - http://www.bohemiancoding.com/sketch -->
    <title>선인장</title>
    <desc>Created with Sketch.</desc>
    <defs></defs>
    <g id="Page-1" stroke="none" stroke-width="1" fill="none" fill-rule="evenodd">
        <path d="M22.4,17.76 C21.52,19 20.6,20.2 19.76,21.4 C17.04,20.4 13.32,17.2 11.76,13.88 C10.68,17.52 6.84,21.24 3.48,22.36 L0.72,18.64 C5.92,16.72 9.28,12.08 9.28,6.76 L9.28,2.56 L14.16,2.56 L14.16,6.52 C14.16,11.96 18.24,16.4 22.4,17.76 Z M30.68,26.36 L26,26.36 L26,12.48 L19.88,12.48 L19.88,8.72 L26,8.72 L26,0.52 L30.68,0.52 L30.68,26.36 Z M31.44,35.2 L7.2,35.2 L7.2,24 L11.84,24 L11.84,31.48 L31.44,31.48 L31.44,35.2 Z M65.24,26.36 L60.6,26.36 L60.6,0.52 L65.24,0.52 L65.24,26.36 Z M66.04,35.2 L41.32,35.2 L41.32,23.8 L46.04,23.8 L46.04,31.52 L66.04,31.52 L66.04,35.2 Z M36.92,11.96 C36.92,6.92 40.72,3.16 46.56,3.16 C52.44,3.16 56.2,6.92 56.2,11.96 C56.2,17.08 52.44,20.72 46.56,20.72 C40.72,20.72 36.92,17.08 36.92,11.96 Z M41.72,11.96 C41.72,14.8 43.56,16.88 46.56,16.88 C49.64,16.88 51.44,14.8 51.44,11.96 C51.44,9.24 49.64,7.16 46.56,7.16 C43.56,7.16 41.72,9.24 41.72,11.96 Z M98.76,28.96 C98.76,33.36 94.2,36.12 86.32,36.12 C78.44,36.12 73.92,33.36 73.92,28.96 C73.92,24.52 78.44,21.8 86.32,21.8 C94.2,21.8 98.76,24.52 98.76,28.96 Z M70.88,6.84 L70.88,3 L89.64,3 L89.64,6.84 L82.88,6.84 C83.28,11.84 86.84,15.16 90.76,16.44 L88.2,20.12 C85.44,19.08 82.04,16.4 80.48,13.12 C79.4,16.6 75.64,19.92 72.2,21.12 L69.44,17.48 C74.4,15.68 77.72,11.88 78,6.84 L70.88,6.84 Z M103.36,12.88 L98.28,12.88 L98.28,21.36 L93.56,21.36 L93.56,0.52 L98.28,0.52 L98.28,9.04 L103.36,9.04 L103.36,12.88 Z M86.32,25.56 C81.44,25.56 78.64,26.8 78.64,28.96 C78.64,31.12 81.44,32.4 86.32,32.4 C91.28,32.4 94.04,31.12 94.04,28.96 C94.04,26.8 91.28,25.56 86.32,25.56 Z" id="hangul" fill="#000000"></path>
    </g>
</svg>