<svg width="102" height="23" viewBox="0 0 102 23" xmlns="http://www.w3.org/2000/svg"><title>cactus</title><path d="M9.375 22.586c-1.875 0-3.454-.378-4.736-1.133a7.157 7.157 0 0 1-2.881-3.115C1.12 17.016.8 15.503.8 13.797c0-2.018.459-3.79 1.377-5.313.918-1.523 2.103-2.692 3.554-3.505 1.452-.814 2.94-1.221 4.463-1.221 1.068 0 1.992.172 2.774.517.781.345 1.373.81 1.777 1.397.404.586.606 1.237.606 1.953 0 .82-.29 1.458-.87 1.914-.579.456-1.364.73-2.353.82-.456-1.302-.925-2.262-1.406-2.88-.482-.619-1.062-.928-1.739-.928-1.015 0-1.796.462-2.343 1.386-.547.925-.82 2.286-.82 4.083 0 1.12.198 2.23.595 3.33.397 1.1.99 2.011 1.777 2.734.788.723 1.742 1.084 2.862 1.084.937 0 1.725-.107 2.363-.322a10.042 10.042 0 0 0 2.012-.967l.625 1.582c-.339.56-.85 1.08-1.534 1.562a8.45 8.45 0 0 1-2.373 1.143 9.27 9.27 0 0 1-2.773.42zm11.992-.117c-1.21 0-2.19-.342-2.94-1.026-.748-.683-1.122-1.657-1.122-2.92 0-1.093.335-2.102 1.006-3.027.67-.924 1.676-1.68 3.017-2.266 1.341-.585 2.988-.911 4.942-.976v-1.465c0-1.185-.254-2.174-.762-2.969C25 7.026 24.27 6.63 23.32 6.63c-.468 0-.823.133-1.064.4-.241.267-.414.68-.518 1.24-.104.56-.202 1.413-.293 2.56-1.067 0-1.933-.15-2.597-.45-.664-.3-.996-.912-.996-1.836 0-.703.42-1.413 1.26-2.129.84-.716 1.884-1.305 3.134-1.768 1.25-.462 2.428-.693 3.535-.693 1.64 0 2.897.479 3.77 1.436.872.957 1.308 2.477 1.308 4.56v6.153c0 .768.026 1.315.078 1.64.053.326.206.59.46.791.253.202.693.362 1.318.479l.762.136-.372 2.5a4.902 4.902 0 0 1-1.337.586c-.45.118-1.039.176-1.768.176-1.003 0-1.729-.228-2.178-.683-.449-.456-.765-1.088-.947-1.895l-.059-.273-.234-.059c-.195.456-.544.911-1.045 1.367-.501.456-1.113.837-1.836 1.143-.722.306-1.5.459-2.334.459zm4.903-4.59v-3.945c-1.563.26-2.68.677-3.35 1.25-.67.573-1.006 1.237-1.006 1.992 0 .482.166.911.498 1.289.332.377.785.566 1.358.566.43 0 .869-.114 1.318-.342.45-.227.843-.498 1.182-.81zm17.539 4.707c-1.875 0-3.454-.378-4.737-1.133a7.157 7.157 0 0 1-2.88-3.115c-.639-1.322-.958-2.835-.958-4.541 0-2.018.46-3.79 1.377-5.313.918-1.523 2.103-2.692 3.555-3.505 1.452-.814 2.94-1.221 4.463-1.221 1.068 0 1.992.172 2.773.517.782.345 1.374.81 1.778 1.397.403.586.605 1.237.605 1.953 0 .82-.29 1.458-.869 1.914-.58.456-1.364.73-2.353.82-.456-1.302-.925-2.262-1.407-2.88-.482-.619-1.06-.928-1.738-.928-1.016 0-1.797.462-2.344 1.386-.547.925-.82 2.286-.82 4.083 0 1.12.198 2.23.596 3.33.397 1.1.99 2.011 1.777 2.734.788.723 1.741 1.084 2.861 1.084.938 0 1.726-.107 2.364-.322a10.042 10.042 0 0 0 2.011-.967l.625 1.582c-.338.56-.85 1.08-1.533 1.562a8.45 8.45 0 0 1-2.373 1.143 9.27 9.27 0 0 1-2.773.42zm9.882-6.016l.059-8.691h-2.207V5.906a17.818 17.818 0 0 0 2.646-2.236A21.574 21.574 0 0 0 56.523.867h2.11v4.297h5.43l-.196 2.774h-5.293l-.039 7.5c0 1.132.218 1.94.654 2.421.437.482 1.182.723 2.237.723.377 0 .752-.062 1.123-.186.37-.123.677-.25.918-.38.24-.13.394-.215.459-.254l.488 1.816c-.586.82-1.377 1.504-2.373 2.05-.996.548-2.139.821-3.428.821-1.172 0-2.116-.182-2.832-.547-.716-.364-1.246-.976-1.592-1.836-.345-.859-.51-2.024-.498-3.496zm14.922.215v-7.87l-2.558-1.563.468-2.579 6.172-.41.782.762v9.2c0 1.327.192 2.271.576 2.831.384.56.96.84 1.728.84.625 0 1.16-.1 1.602-.303.443-.201.885-.51 1.328-.927V9.05l-2.695-1.153.43-2.93 6.367-.683.722.762v11.21c0 .652.078 1.156.235 1.514.156.359.397.632.722.82.326.19.807.375 1.445.557l.704.196-.313 2.46c-.69.261-1.344.453-1.963.577a9.788 9.788 0 0 1-1.924.185c-1.041 0-1.862-.247-2.46-.742-.6-.495-.899-1.204-.899-2.129v-.234l-.254-.04c-.625 1.003-1.416 1.772-2.373 2.306-.957.533-1.976.8-3.057.8-1.666 0-2.88-.446-3.642-1.338-.762-.891-1.143-2.36-1.143-4.404zm25.41 5.899a9.553 9.553 0 0 1-3.095-.489c-.957-.325-1.719-.768-2.285-1.328-.567-.56-.85-1.185-.85-1.875 0-.807.28-1.465.84-1.972.56-.508 1.334-.801 2.324-.88.378 1.316.885 2.315 1.523 2.999.638.683 1.342 1.025 2.11 1.025.768 0 1.354-.124 1.758-.371.403-.247.605-.658.605-1.23 0-.339-.133-.658-.4-.958a4.369 4.369 0 0 0-1.016-.82 28.87 28.87 0 0 0-1.728-.937c-1.146-.6-2.077-1.143-2.793-1.631a7.319 7.319 0 0 1-1.866-1.856c-.527-.748-.79-1.63-.79-2.646 0-.833.237-1.696.712-2.588.476-.892 1.224-1.644 2.246-2.256 1.022-.612 2.302-.918 3.838-.918 1.68 0 3.037.287 4.073.86 1.035.572 1.552 1.393 1.552 2.46 0 .82-.306 1.508-.918 2.061-.612.553-1.38.87-2.304.947l-.391-1.25c-.26-1.041-.658-1.77-1.191-2.187-.534-.417-1.12-.625-1.758-.625-.586 0-1.052.176-1.397.527-.345.352-.517.788-.517 1.309 0 .403.15.774.449 1.113.3.339.677.648 1.133.928.455.28 1.08.621 1.875 1.025 1.159.6 2.103 1.143 2.832 1.631.729.488 1.354 1.1 1.875 1.836.52.736.781 1.605.781 2.607 0 1.094-.326 2.058-.977 2.89-.65.834-1.526 1.476-2.627 1.925-1.1.449-2.307.674-3.623.674z" fill="#000" fill-rule="evenodd"/></svg>