<svg width="340" height="512" viewBox="0 0 340 512" xmlns="http://www.w3.org/2000/svg"><!--Generator: Sketch 48.2 (47327) - http://www.bohemiancoding.com/sketch--><title>cactus (3)</title><g fill-rule="nonzero" fill="none"><g fill="#80C56E"><path d="M304.046 61.629c-26.671-15.203-60.617-5.907-75.821 20.764-17.886 31.377-19.544 78.346-18.288 109.054a93.405 93.405 0 0 0-25.644-3.568 93.46 93.46 0 0 0-23.828 3.074c2.279-39.32 2.201-106.487-19.954-146.819C121.718 9.924 78.75-2.574 44.54 16.219s-46.708 61.76-27.915 95.971c23.174 42.185 76.768 76.441 110.833 94.989-22.197 17.064-36.508 43.88-36.508 74.042 0 51.552 41.791 157.314 93.343 157.314 51.552 0 93.343-105.762 93.343-157.314 0-30.003-14.159-56.696-36.155-73.772 27.455-15.341 66.843-41.079 83.329-70 15.204-26.67 5.907-60.616-20.764-75.82z"/><path d="M209.938 191.447a93.405 93.405 0 0 0-25.644-3.568 93.46 93.46 0 0 0-23.828 3.074c-17.951 4.698-33.007 16.226-33.007 16.226-22.197 17.064-36.508 43.88-36.508 74.042 0 51.552 41.791 157.314 93.343 157.314 51.552 0 93.343-105.762 93.343-157.314 0-30.003-14.159-56.696-36.155-73.772-22.13-14.84-31.544-16.002-31.544-16.002z"/></g><g fill="#66AD66"><path d="M148.806 63.226c-2.575-6.805-4.993-12.578-7.101-16.803-.396-.766-.783-1.541-1.194-2.288a71.365 71.365 0 0 0-1.771-3.039c-.204-.332-.422-.65-.631-.978-.416-.653-.832-1.306-1.266-1.94-.262-.383-.537-.752-.806-1.129-.4-.56-.798-1.121-1.212-1.666-.299-.394-.609-.777-.916-1.163-.402-.507-.803-1.014-1.217-1.508-.328-.391-.665-.772-1-1.155-.41-.468-.821-.935-1.242-1.39a67.453 67.453 0 0 0-1.074-1.129c-.42-.435-.842-.866-1.272-1.288a69.22 69.22 0 0 0-1.141-1.094 69.298 69.298 0 0 0-3.831-3.346 68.4 68.4 0 0 0-1.276-1.016 68.473 68.473 0 0 0-1.337-1.003 66.607 66.607 0 0 0-1.346-.975c-.441-.309-.888-.606-1.336-.904-.474-.316-.947-.635-1.427-.939-.431-.273-.869-.531-1.305-.794-.509-.307-1.017-.618-1.533-.912-.397-.226-.801-.436-1.202-.654-.567-.308-1.131-.621-1.705-.913-.273-.139-.553-.265-.828-.4a70.978 70.978 0 0 0-7.605-3.215c-.125-.044-.248-.094-.373-.138a68.876 68.876 0 0 0-2.345-.76c-.247-.077-.492-.161-.741-.235a68.216 68.216 0 0 0-2.274-.627c-.283-.074-.564-.154-.848-.225a70.12 70.12 0 0 0-2.267-.518c-.295-.063-.588-.13-.884-.19a70.792 70.792 0 0 0-2.289-.417c-.294-.049-.589-.1-.884-.146a70.273 70.273 0 0 0-2.333-.319c-.283-.034-.566-.068-.85-.099a73.496 73.496 0 0 0-3.186-.273 70.417 70.417 0 0 0-2.475-.115c-.233-.007-.466-.009-.699-.014a71.466 71.466 0 0 0-2.578-.004c-.187.003-.374.011-.561.016-.908.024-1.817.06-2.727.12-.108.007-.217.018-.325.025a70.22 70.22 0 0 0-21.824 5.11c13.185 5.393 73.074 48.087 94.629 183.299 4.289-1.972 9.063-3.811 14.064-5.12 1.952-33.618 2.165-87.576-11.656-127.729zM241.481 207.45c-22.129-14.841-31.543-16.003-31.543-16.003a93.405 93.405 0 0 0-25.644-3.568c-.864 0-1.723.018-2.581.042a211.35 211.35 0 0 1 8.573 5.796c21.997 18.091 36.155 46.37 36.155 78.156 0 45.353-28.819 130.302-68.114 157.814 8.244 5.609 16.955 8.849 25.966 8.849 51.552 0 93.343-105.762 93.343-157.314 0-30.003-14.159-56.695-36.155-73.772zM164.787 433.531zM163.097 432.632zM172.288 436.629z"/><path d="M158.327 429.687c20.405-14.286 37.983-44.062 50.17-75.738-16.245 27.744-37.227 48.648-60.142 48.648-6.663 0-13.16-1.779-19.428-4.967 9.959 15.302 21.432 27.827 33.863 34.827a61.878 61.878 0 0 1-4.463-2.77zM168.18 435.112zM173.596 437.017c-.31-.087-.622-.17-.931-.265.31.094.621.178.931.265zM166.484 434.359zM175.32 437.464c-.291-.069-.583-.136-.874-.211.291.074.582.142.874.211zM182.473 438.489c-.206-.01-.411-.028-.616-.041.205.013.41.031.616.041zM304.046 61.629a55.8 55.8 0 0 0-10.547-4.643c4.594 14.315 14.691 75.232-68.556 140.483 4.435 2.327 9.912 5.537 16.538 9.981 27.455-15.341 66.843-41.079 83.329-70 15.204-26.671 5.907-60.617-20.764-75.821zM180.663 438.356c-.247-.024-.493-.054-.74-.082.247.028.493.058.74.082zM177.08 437.84zM178.865 438.139z"/></g><path d="M265.062 504.5H112.639c-8.567 0-16.325-6.468-18.053-15.152l-26.32-120.513h241.169l-26.32 120.513c-1.728 8.684-9.486 15.152-18.053 15.152z" fill="#FEC37D"/><path d="M258.433 368.835l-26.32 120.513c-1.728 8.684-9.486 15.152-18.053 15.152h51.002c8.567 0 16.325-6.468 18.053-15.152l26.32-120.513h-51.002z" fill="#F9AE5D"/><path d="M322.026 388.143H55.675a4.884 4.884 0 0 1-4.884-4.884v-18.656a4.884 4.884 0 0 1 4.884-4.884h266.351a4.884 4.884 0 0 1 4.884 4.884v18.656a4.884 4.884 0 0 1-4.884 4.884z" fill="#F2A559"/><path d="M322.026 359.72h-45.941v28.423h45.941a4.884 4.884 0 0 0 4.884-4.884v-18.656a4.884 4.884 0 0 0-4.884-4.883z" fill="#EA8F3D"/><path d="M137.425 251.71l-2.047-7.63a7.5 7.5 0 0 0-14.488 3.886l2.047 7.63a7.49 7.49 0 0 0 9.187 5.301 7.5 7.5 0 0 0 5.301-9.187zM137.425 151.336l-2.046-7.631a7.5 7.5 0 0 0-14.489 3.887l2.046 7.631a7.49 7.49 0 0 0 9.188 5.301 7.5 7.5 0 0 0 5.301-9.188zM246.656 155.223a7.49 7.49 0 0 0 9.188 5.301 7.5 7.5 0 0 0 5.301-9.187l-2.047-7.631a7.502 7.502 0 0 0-14.489 3.887l2.047 7.63zM107.903 70.29a7.5 7.5 0 0 0-5.301 9.187l2.047 7.63a7.502 7.502 0 0 0 7.239 5.559 7.5 7.5 0 0 0 7.249-9.445l-2.047-7.63a7.499 7.499 0 0 0-9.187-5.301zM252.872 110.281a7.5 7.5 0 0 0 7.249-9.445l-2.047-7.63a7.5 7.5 0 1 0-14.489 3.886l2.047 7.63a7.505 7.505 0 0 0 7.24 5.559zM44.727 74.105a7.5 7.5 0 0 0-5.301 9.187l2.047 7.63a7.49 7.49 0 0 0 9.187 5.301 7.5 7.5 0 0 0 5.301-9.187l-2.047-7.63a7.5 7.5 0 0 0-9.187-5.301zM171.59 291.502a7.504 7.504 0 0 0 7.24 5.559 7.5 7.5 0 0 0 7.249-9.445l-2.047-7.63a7.5 7.5 0 1 0-14.489 3.886l2.047 7.63zM148.881 321.901a7.5 7.5 0 0 0-5.301 9.188l2.046 7.631a7.49 7.49 0 0 0 9.188 5.301 7.5 7.5 0 0 0 5.301-9.187l-2.046-7.631a7.505 7.505 0 0 0-9.188-5.302zM225.819 253.268a7.5 7.5 0 0 0 5.301-9.187l-2.047-7.63a7.5 7.5 0 1 0-14.489 3.886l2.047 7.63a7.504 7.504 0 0 0 7.24 5.559c.643 0 1.298-.084 1.948-.258zM180.626 233.2l3.071-7.279a7.5 7.5 0 1 0-13.821-5.831l-3.071 7.279a7.5 7.5 0 1 0 13.821 5.831zM82.307 118.699a7.5 7.5 0 0 0-9.826 3.995l-3.071 7.279a7.5 7.5 0 1 0 13.821 5.831l3.071-7.279a7.5 7.5 0 0 0-3.995-9.826zM297.022 103.57a7.5 7.5 0 0 0-9.827 3.994l-3.071 7.279a7.502 7.502 0 0 0 6.907 10.419 7.502 7.502 0 0 0 6.913-4.586l3.071-7.279a7.5 7.5 0 0 0-3.993-9.827zM82.308 33.404a7.5 7.5 0 0 0-9.827 3.994l-3.071 7.279a7.502 7.502 0 0 0 13.821 5.833l3.071-7.279a7.502 7.502 0 0 0-3.994-9.827zM206.169 315.375l-3.07 7.279a7.5 7.5 0 0 0 13.82 5.831l3.07-7.279a7.5 7.5 0 0 0-3.995-9.826 7.497 7.497 0 0 0-9.825 3.995zM242.492 301.195a7.502 7.502 0 0 0 6.913-4.587l3.07-7.279a7.5 7.5 0 0 0-13.821-5.831l-3.07 7.279a7.5 7.5 0 0 0 6.908 10.418zM125.681 298.079a7.5 7.5 0 0 0-9.826 3.995l-3.071 7.279a7.5 7.5 0 0 0 6.907 10.418 7.503 7.503 0 0 0 6.914-4.587l3.071-7.279a7.5 7.5 0 0 0-3.995-9.826z" fill="#000"/><path d="M322.026 352.22h-51.784c9.403-25.542 14.895-51.457 14.895-70.998 0-27.698-11.091-53.581-30.764-72.524 12.733-7.51 24.318-15.211 34.539-22.964a7.501 7.501 0 0 0-9.065-11.952c-12.089 9.169-26.227 18.293-42.024 27.12a7.5 7.5 0 0 0-.941 12.472c21.134 16.407 33.255 41.136 33.255 67.848 0 18.87-6.054 45.69-15.934 70.998H114.385c-9.88-25.307-15.934-52.128-15.934-70.998 0-26.871 12.239-51.691 33.579-68.096a7.498 7.498 0 0 0-.985-12.534c-30.532-16.624-85.143-50.684-107.847-92.013-8.124-14.79-10.003-31.858-5.29-48.061s15.454-29.601 30.243-37.725c30.532-16.771 69.014-5.577 85.786 24.953 21.497 39.133 21.157 106.25 19.04 142.774a7.499 7.499 0 0 0 9.397 7.687c14.824-3.902 30.807-3.737 45.506.453a7.494 7.494 0 0 0 6.697-1.32 7.506 7.506 0 0 0 2.855-6.2c-2.48-60.618 9.781-91.825 17.309-105.033 6.361-11.159 16.686-19.172 29.075-22.565 12.387-3.393 25.356-1.758 36.515 4.603 23.035 13.131 31.093 42.555 17.964 65.589a75.723 75.723 0 0 1-2.416 3.944 7.5 7.5 0 0 0 12.551 8.216 90.55 90.55 0 0 0 2.896-4.73c17.227-30.222 6.655-68.824-23.567-86.051-14.639-8.346-31.653-10.49-47.906-6.039-16.253 4.451-29.798 14.966-38.143 29.605-16.701 29.298-20.089 70.664-19.549 103.281a101.987 101.987 0 0 0-33.725-.335c1.612-39.466.085-102.079-21.351-141.101C126.331 2.743 78.711-11.11 40.93 9.646 3.149 30.4-10.703 78.021 10.052 115.801c12.28 22.355 40.337 56.172 104.369 92.698-19.806 18.956-30.97 44.903-30.97 72.722 0 19.542 5.491 45.457 14.894 70.998H55.676c-6.829 0-12.384 5.555-12.384 12.384v18.656c0 6.829 5.555 12.384 12.384 12.384h10.768l20.801 95.241C89.677 502.928 100.581 512 112.639 512h152.423c12.058 0 22.962-9.073 25.394-21.116l20.8-95.24h10.77c6.828 0 12.384-5.555 12.384-12.384v-18.656c0-6.829-5.556-12.384-12.384-12.384zm-46.239 135.527c-.01.045-.02.091-.028.137-1.018 5.112-5.716 9.115-10.697 9.115H112.639c-4.981 0-9.68-4.004-10.696-9.115l-.029-.137-9.602-43.963 20.876 12.888a7.498 7.498 0 0 0 7.88 0l31.928-19.711 31.93 19.711a7.498 7.498 0 0 0 7.879 0l31.929-19.711 31.933 19.711a7.498 7.498 0 0 0 7.879 0l20.836-12.861-9.595 43.936zm43.623-107.104H155.331a7.5 7.5 0 0 0 0 15h140.572l-6.07 27.793-29.226 18.039-31.933-19.711a7.498 7.498 0 0 0-7.879 0l-31.929 19.711-31.929-19.711a7.5 7.5 0 0 0-7.88 0l-31.928 19.711-29.266-18.069-6.064-27.764h19.53a7.5 7.5 0 0 0 0-15H58.293V367.22h261.118l-.001 13.423z" fill="#000"/></g></svg>