<svg width="308" height="512" viewBox="0 0 308 512" xmlns="http://www.w3.org/2000/svg"><!--Generator: Sketch 48.2 (47327) - http://www.bohemiancoding.com/sketch--><title>flower</title><g fill-rule="nonzero" fill="none"><path d="M299.061 222.148a.648.648 0 0 1 .41.877c-2.526 5.985-22.423 50.88-57.355 67.196-43.386 20.265-61.375-12.273-61.375-12.273s-13.407-34.679 29.979-54.944c34.932-16.316 82.13-2.76 88.341-.856z" fill="#80C56E"/><path d="M242.116 290.222c34.932-16.317 54.829-61.211 57.355-67.196a.647.647 0 0 0-.41-.877l-118.321 55.8c0-.001 17.99 32.537 61.376 12.273z" fill="#66AD66"/><path d="M8.939 222.148a.648.648 0 0 0-.41.877c2.526 5.985 22.423 50.88 57.355 67.196 43.386 20.265 61.375-12.273 61.375-12.273s13.407-34.679-29.979-54.944c-34.932-16.316-82.13-2.76-88.341-.856z" fill="#80C56E"/><path d="M65.884 290.222c43.386 20.265 61.375-12.273 61.375-12.273L8.558 222.466a.644.644 0 0 0-.03.56c2.528 5.984 22.424 50.879 57.356 67.196z" fill="#66AD66"/><g fill="#EF4D68"><path d="M175.588 32.572c0 19.46-9.665 56.016-21.588 56.016-11.923 0-21.588-36.555-21.588-56.016S142.077 7.5 154 7.5c11.923 0 21.588 5.612 21.588 25.072zM175.588 178.078c0-19.46-9.665-56.016-21.588-56.016-11.923 0-21.588 36.555-21.588 56.016S142.077 203.15 154 203.15c11.923 0 21.588-5.612 21.588-25.072z"/></g><g fill="#FD747F"><path d="M220.709 69.147c-13.76 13.76-46.443 32.774-54.874 24.344-8.431-8.43 10.583-41.114 24.344-54.874 13.761-13.76 24.563-10.894 32.994-2.464 8.431 8.43 11.297 19.233-2.464 32.994zM117.821 172.034c13.76-13.76 32.774-46.443 24.344-54.874-8.43-8.431-41.114 10.583-54.874 24.344-13.76 13.76-10.894 24.563-2.464 32.994 8.431 8.431 19.234 11.297 32.994-2.464z"/></g><g fill="#EF4D68"><path d="M226.753 126.914c-19.46 0-56.016-9.665-56.016-21.588 0-11.923 36.555-21.588 56.016-21.588s25.073 9.665 25.073 21.588c0 11.923-5.613 21.588-25.073 21.588zM81.247 126.914c19.46 0 56.016-9.665 56.016-21.588 0-11.923-36.555-21.588-56.016-21.588s-25.072 9.665-25.072 21.588c0 11.923 5.612 21.588 25.072 21.588z"/></g><g fill="#FD747F"><path d="M190.179 172.034c-13.76-13.76-32.774-46.443-24.344-54.874 8.43-8.431 41.114 10.583 54.874 24.344 13.76 13.76 10.894 24.563 2.464 32.994-8.431 8.431-19.234 11.297-32.994-2.464zM87.291 69.147c13.76 13.76 46.443 32.774 54.874 24.344 8.431-8.43-10.583-41.114-24.344-54.874-13.76-13.76-24.563-10.894-32.994-2.464-8.431 8.43-11.297 19.233 2.464 32.994z"/></g><g transform="translate(57 79)" fill="#FEC37D"><circle cx="97" cy="26.33" r="25.74"/><path d="M153.693 425.5H40.307a9.8 9.8 0 0 1-9.605-7.86L.663 268.823h192.674L163.298 417.64a9.8 9.8 0 0 1-9.605 7.86z"/></g><path d="M200.337 347.823L170.298 496.64a9.8 9.8 0 0 1-9.605 7.86h50a9.8 9.8 0 0 0 9.605-7.86l30.039-148.817h-50z" fill="#F9AE5D"/><path d="M264.949 374.336H43.051a5.124 5.124 0 0 1-5.124-5.124v-26.559a5.124 5.124 0 0 1 5.124-5.124h221.897a5.124 5.124 0 0 1 5.124 5.124v26.559a5.122 5.122 0 0 1-5.123 5.124z" fill="#F2A559"/><g fill="#EA8F3D"><path d="M264.949 337.529H219.25v36.807h45.698a5.124 5.124 0 0 0 5.124-5.124v-26.559a5.122 5.122 0 0 0-5.123-5.124zM181.944 438.942h50l1.291-6.395 1.737-8.605h-50z"/></g><path d="M178.321 287.356a48.89 48.89 0 0 0 13.15 10.859c5.786 3.267 13.765 6.135 23.944 6.135 8.444 0 18.402-1.974 29.875-7.333 39.69-18.539 60.55-69.698 61.418-71.866.014-.036.024-.073.037-.109.051-.133.095-.268.138-.404.032-.102.067-.203.095-.306.039-.144.07-.291.101-.438.02-.094.043-.188.059-.283.029-.169.047-.339.064-.51.007-.074.019-.147.024-.22.015-.208.017-.418.014-.628-.001-.037.002-.074.001-.112a7.474 7.474 0 0 0-2.515-5.383c-.03-.027-.063-.05-.093-.076a7.7 7.7 0 0 0-.483-.386c-.062-.045-.128-.085-.192-.128a7.84 7.84 0 0 0-.424-.273c-.087-.051-.177-.095-.266-.143-.128-.068-.256-.137-.388-.197-.101-.047-.205-.087-.308-.129a7.42 7.42 0 0 0-.384-.148c-.038-.013-.074-.031-.113-.043-2.22-.726-54.841-17.563-94.53.976-25.303 11.819-33.25 28.549-35.46 40.503a48.9 48.9 0 0 0-.112 17.054L161.5 278.66v-68.74c10.154-2.074 21.588-9.39 21.588-31.84 0-.854-.019-1.742-.052-2.653a73.111 73.111 0 0 0 1.839 1.913c7.798 7.799 15.753 11.751 23.65 11.751l.217-.001c6.996-.064 13.635-3.188 19.733-9.286 7.682-7.682 17.576-23.561-2.463-43.601a74.649 74.649 0 0 0-1.912-1.839c.911.033 1.799.052 2.652.052 28.341 0 32.573-18.225 32.573-29.088s-4.232-29.089-32.573-29.089c-.854 0-1.741.019-2.652.052a71.493 71.493 0 0 0 1.912-1.839c20.04-20.04 10.145-35.919 2.463-43.601-6.097-6.098-12.736-9.222-19.733-9.287-7.941-.042-15.998 3.88-23.868 11.75a73.111 73.111 0 0 0-1.839 1.913c.033-.911.052-1.799.052-2.653C183.088 4.231 164.864 0 154 0s-29.088 4.231-29.088 32.572c0 .854.019 1.742.052 2.653a73.111 73.111 0 0 0-1.839-1.913c-7.799-7.799-15.753-11.751-23.65-11.751l-.217.001c-6.997.064-13.636 3.189-19.733 9.287-7.682 7.682-17.576 23.561 2.464 43.601a74.649 74.649 0 0 0 1.912 1.839 73.615 73.615 0 0 0-2.653-.052c-28.341 0-32.573 18.225-32.573 29.089 0 10.864 4.232 29.088 32.573 29.088.854 0 1.741-.019 2.653-.052a71.493 71.493 0 0 0-1.912 1.839c-20.04 20.04-10.146 35.919-2.464 43.601 6.098 6.098 12.737 9.222 19.733 9.286l.217.001c7.896 0 15.853-3.953 23.65-11.751a73.111 73.111 0 0 0 1.839-1.913 73.615 73.615 0 0 0-.052 2.653c0 22.45 11.434 29.766 21.588 31.84v68.74l-10.473-4.892a48.9 48.9 0 0 0-.112-17.054c-2.21-11.954-10.157-28.684-35.46-40.503-39.69-18.539-92.31-1.701-94.53-.976-.039.013-.076.031-.114.044a7.501 7.501 0 0 0-.377.145c-.106.043-.212.084-.316.132a7.364 7.364 0 0 0-.376.191c-.093.05-.188.096-.279.149a7.157 7.157 0 0 0-.405.261c-.07.047-.143.091-.211.141-.159.115-.31.24-.46.368-.038.032-.079.062-.116.095a7.409 7.409 0 0 0-.522.512l-.011.011a7.486 7.486 0 0 0-1.979 4.858c-.001.037.002.074.001.112-.003.21 0 .419.014.628.005.074.017.147.024.22.017.171.035.341.064.51.016.095.039.189.059.283.031.147.061.293.101.438.028.103.062.204.095.306.043.136.087.271.138.404.014.036.023.073.037.109.869 2.168 21.728 53.327 61.418 71.866 11.475 5.359 21.43 7.333 29.875 7.333 10.177 0 18.159-2.869 23.944-6.135a48.906 48.906 0 0 0 13.15-10.859l16.821 7.857v34.815H43.051c-6.961 0-12.625 5.663-12.625 12.625v26.559c0 6.961 5.664 12.625 12.625 12.625h13.826l10.312 51.087.012.058 13.15 65.143C81.974 506.165 89.105 512 97.308 512h113.385c8.203 0 15.333-5.835 16.957-13.876l23.474-116.288h13.826c6.961 0 12.625-5.663 12.625-12.625v-26.559c0-6.961-5.664-12.625-12.625-12.625H161.5v-34.815l16.821-7.856zm60.621-3.93c-15.394 7.19-28.694 7.875-39.531 2.039a33.378 33.378 0 0 1-6.734-4.814l90.546-42.293c-8.948 15.202-23.98 35.586-44.281 45.068zm-52.107-23.987c2.283-12.348 11.387-22.32 27.058-29.64 20.237-9.452 45.528-7.904 62.949-5.017l-90.527 42.284a33.792 33.792 0 0 1 .52-7.627zM94.107 229.8c15.393 7.19 24.455 16.949 26.934 29.006.62 3.016.741 5.831.63 8.254l-90.513-42.277c17.423-2.886 42.714-4.435 62.949 5.017zm14.482 55.665c-10.837 5.837-24.137 5.152-39.531-2.039-20.237-9.453-35.28-29.841-44.248-45.053l90.513 42.278a33.435 33.435 0 0 1-6.734 4.814zm118.732 138.477h-76.598a7.5 7.5 0 0 0 0 15h73.57l-11.347 56.214a2.307 2.307 0 0 1-2.253 1.844H97.308a2.304 2.304 0 0 1-2.253-1.844l-11.347-56.214h14.001a7.5 7.5 0 0 0 0-15H80.68l-8.499-42.106H235.82l-8.499 42.106zm35.252-57.106H45.427v-21.808h217.146v21.808zM147.461 122.348c-.147-.056-.295-.102-.444-.149-.14-.073-.279-.147-.424-.212a18.24 18.24 0 0 1-9.256-9.256c-.065-.145-.139-.284-.211-.423-.047-.148-.092-.297-.148-.444a18.148 18.148 0 0 1-1.213-6.54c0-2.247.408-4.447 1.213-6.54.067-.174.122-.349.176-.524.059-.116.13-.222.184-.342a18.245 18.245 0 0 1 9.257-9.256c.146-.065.286-.139.426-.213.147-.046.294-.091.44-.147a18.328 18.328 0 0 1 13.081 0c.144.055.289.098.434.144.142.074.284.15.432.216a18.245 18.245 0 0 1 9.257 9.256c.053.12.125.226.184.342.053.176.109.351.176.524a18.148 18.148 0 0 1 1.213 6.54c0 2.247-.408 4.447-1.213 6.54-.056.147-.102.295-.148.443-.073.139-.147.278-.211.423a18.243 18.243 0 0 1-9.256 9.256c-.145.065-.284.139-.424.212-.148.047-.297.092-.444.149a18.312 18.312 0 0 1-13.081.001zm70.409 46.847c-3.266 3.266-6.296 4.866-9.264 4.894h-.079c-3.773 0-8.162-2.475-13.044-7.357-7.772-7.772-17.772-22.656-22.127-34.388a33.177 33.177 0 0 0 7.663-7.663c11.732 4.354 26.616 14.354 34.389 22.126 10.31 10.312 8.441 16.408 2.462 22.388zm26.455-63.87c0 8.457-2.988 14.088-17.573 14.088-10.991 0-28.584-3.453-39.959-8.669.294-1.783.442-3.593.442-5.419 0-1.827-.148-3.636-.442-5.42 11.375-5.216 28.968-8.669 39.959-8.669 14.585 0 17.573 5.633 17.573 14.089zm-48.843-61.406c4.917-4.917 9.356-7.426 13.124-7.357 2.968.027 5.999 1.628 9.264 4.894 5.979 5.979 7.849 12.075-2.463 22.388-7.773 7.772-22.657 17.772-34.389 22.126a33.197 33.197 0 0 0-7.663-7.663c4.354-11.732 14.354-26.616 22.127-34.388zM154 15c8.457 0 14.088 2.988 14.088 17.572 0 10.992-3.453 28.585-8.669 39.959a33.295 33.295 0 0 0-5.419-.442c-1.826 0-3.636.148-5.419.442-5.216-11.375-8.669-28.968-8.669-39.959C139.912 17.988 145.543 15 154 15zM90.13 41.456c3.266-3.266 6.296-4.866 9.264-4.894h.079c3.773 0 8.162 2.475 13.044 7.357 7.772 7.772 17.773 22.656 22.127 34.388a33.177 33.177 0 0 0-7.663 7.663c-11.732-4.354-26.616-14.354-34.388-22.126-10.311-10.313-8.442-16.409-2.463-22.388zm-26.455 63.869c0-8.457 2.988-14.089 17.573-14.089 10.991 0 28.584 3.453 39.959 8.669a33.298 33.298 0 0 0-.442 5.42c0 1.826.148 3.636.442 5.419-11.375 5.216-28.968 8.669-39.959 8.669-14.585.001-17.573-5.631-17.573-14.088zm48.843 61.406c-4.883 4.883-9.271 7.358-13.044 7.357h-.079c-2.968-.027-5.999-1.628-9.264-4.894-5.979-5.98-7.849-12.076 2.464-22.388 7.772-7.772 22.656-17.772 34.388-22.126a33.177 33.177 0 0 0 7.663 7.663c-4.355 11.732-14.355 26.615-22.128 34.388zm27.394 11.347c0-10.991 3.453-28.584 8.669-39.959 3.566.589 7.272.589 10.839 0 5.216 11.375 8.669 28.968 8.669 39.959 0 14.584-5.632 17.572-14.088 17.572s-14.089-2.988-14.089-17.572z" fill="#000"/></g></svg>