<svg width="104" height="37" viewBox="0 0 104 37" xmlns="http://www.w3.org/2000/svg"><!--Generator: Sketch 48.2 (47327) - http://www.bohemiancoding.com/sketch--><title>선인장</title><path d="M22.4 17.76c-.88 1.24-1.8 2.44-2.64 3.64-2.72-1-6.44-4.2-8-7.52-1.08 3.64-4.92 7.36-8.28 8.48L.72 18.64c5.2-1.92 8.56-6.56 8.56-11.88v-4.2h4.88v3.96c0 5.44 4.08 9.88 8.24 11.24zm8.28 8.6H26V12.48h-6.12V8.72H26V.52h4.68v25.84zm.76 8.84H7.2V24h4.64v7.48h19.6v3.72zm33.8-8.84H60.6V.52h4.64v25.84zm.8 8.84H41.32V23.8h4.72v7.72h20v3.68zM36.92 11.96c0-5.04 3.8-8.8 9.64-8.8 5.88 0 9.64 3.76 9.64 8.8 0 5.12-3.76 8.76-9.64 8.76-5.84 0-9.64-3.64-9.64-8.76zm4.8 0c0 2.84 1.84 4.92 4.84 4.92 3.08 0 4.88-2.08 4.88-4.92 0-2.72-1.8-4.8-4.88-4.8-3 0-4.84 2.08-4.84 4.8zm57.04 17c0 4.4-4.56 7.16-12.44 7.16s-12.4-2.76-12.4-7.16c0-4.44 4.52-7.16 12.4-7.16 7.88 0 12.44 2.72 12.44 7.16zM70.88 6.84V3h18.76v3.84h-6.76c.4 5 3.96 8.32 7.88 9.6l-2.56 3.68c-2.76-1.04-6.16-3.72-7.72-7-1.08 3.48-4.84 6.8-8.28 8l-2.76-3.64c4.96-1.8 8.28-5.6 8.56-10.64h-7.12zm32.48 6.04h-5.08v8.48h-4.72V.52h4.72v8.52h5.08v3.84zM86.32 25.56c-4.88 0-7.68 1.24-7.68 3.4s2.8 3.44 7.68 3.44c4.96 0 7.72-1.28 7.72-3.44s-2.76-3.4-7.72-3.4z" fill="#000" fill-rule="evenodd"/></svg>