<svg width="340" height="512" viewBox="0 0 340 512" xmlns="http://www.w3.org/2000/svg"><g fill-rule="nonzero" fill="none"><path d="M237.216 278.5h-38.69v-52.822h38.69c22.986 0 41.621-18.634 41.621-41.621V111.41c0-14.586 11.825-26.411 26.411-26.411 14.586 0 26.411 11.825 26.411 26.411v72.647c-.001 52.16-42.284 94.443-94.443 94.443z" fill="#80C56E"/><path d="M305.247 85v100.57c0 35.768-28.996 64.764-64.764 64.764h-41.958V278.5h38.69c52.159 0 94.443-42.283 94.443-94.442v-72.647c0-14.586-11.825-26.411-26.411-26.411z" fill="#66AD66"/><path d="M162.342 205.537H67.869c-32.876 0-59.527-26.651-59.527-59.527V96.995c0-14.449 11.713-26.161 26.161-26.161 14.449 0 26.161 11.713 26.161 26.161v49.015a7.205 7.205 0 0 0 7.205 7.205h94.473v52.322z" fill="#80C56E"/><path d="M66.542 177.52h95.8v-24.306H67.869a7.205 7.205 0 0 1-7.205-7.205V96.995c0-14.449-11.713-26.161-26.161-26.161v74.648c0 17.694 14.345 32.038 32.039 32.038z" fill="#66AD66"/><path d="M169.748 7.5c-30.199 0-54.68 24.481-54.68 54.679v328.154h109.359V62.179c.001-30.198-24.48-54.679-54.679-54.679z" fill="#80C56E"/><path d="M169.748 7.5c-10.72 0-19.411 27.833-19.411 71.411v311.422h38.822V78.911c0-43.244-8.69-71.411-19.411-71.411z" fill="#66AD66"/><path d="M189.159 390.333V78.911c0-43.244-8.691-71.411-19.411-71.411v382.833h19.411z" fill="#61A361"/><path d="M239.265 504.5H100.232c-18.597 0-33.672-15.076-33.672-33.672v-97.552h206.377v97.552c0 18.596-15.076 33.672-33.672 33.672z" fill="#FEC37D"/><path d="M221.525 373.276v97.552c0 18.597-15.076 33.672-33.672 33.672h51.412c18.597 0 33.672-15.076 33.672-33.672v-97.552h-51.412z" fill="#F9AE5D"/><path d="M285.062 387.406H54.435a5.12 5.12 0 0 1-5.12-5.12v-18.02a5.12 5.12 0 0 1 5.12-5.12h230.627a5.12 5.12 0 0 1 5.12 5.12v18.02a5.12 5.12 0 0 1-5.12 5.12z" fill="#F2A559"/><path d="M285.062 359.146h-45.63v28.26h45.63a5.12 5.12 0 0 0 5.12-5.12v-18.02a5.12 5.12 0 0 0-5.12-5.12z" fill="#EA8F3D"/><path d="M305.247 77.5c-18.698 0-33.911 15.212-33.911 33.911v72.646c0 18.814-15.307 34.121-34.12 34.121h-5.288V62.18c0-34.286-27.894-62.18-62.18-62.18-34.285 0-62.179 27.894-62.179 62.18v83.535H68.165v-48.72c0-18.561-15.101-33.662-33.662-33.662S.842 78.434.842 96.995v49.015c0 36.959 30.068 67.027 67.027 67.027h39.7v138.609H54.434c-6.959 0-12.62 5.661-12.62 12.62v18.02c0 6.958 5.661 12.62 12.62 12.62h4.625v75.921c0 22.703 18.47 41.172 41.173 41.172h139.032c22.703 0 41.173-18.47 41.173-41.172v-75.921h4.625c6.959 0 12.62-5.662 12.62-12.62v-18.02c0-6.959-5.661-12.62-12.62-12.62h-53.135V286h5.288c56.211 0 101.942-45.731 101.942-101.942v-72.646c.001-18.7-15.212-33.912-33.91-33.912zm-147.409 1.411c0-42.926 8.335-61.1 11.896-63.733 3.42 2.583 11.488 19.915 11.908 60.523a7.5 7.5 0 0 0 7.498 7.422h.08a7.5 7.5 0 0 0 7.422-7.577c-.115-11.118-1.136-38.017-7.863-56.522 16.56 7.332 28.148 23.911 28.148 43.156v289.466h-20.269V128.875a7.5 7.5 0 0 0-7.5-7.5 7.5 7.5 0 0 0-7.5 7.5v222.771h-23.821V78.911h.001zm-35.269 126.626V62.18c0-19.209 11.545-35.762 28.056-43.115-7 19.346-7.787 48.07-7.787 59.846v272.735h-20.269V205.537zM42.003 79.919c6.564 2.894 11.162 9.454 11.162 17.076v49.015c0 8.108 6.597 14.705 14.704 14.705h39.7v9.306H66.542c-13.531 0-24.539-11.008-24.539-24.539V79.919zm25.866 118.118c-28.688 0-52.027-23.339-52.027-52.027V96.995c0-7.621 4.598-14.18 11.161-17.075v65.561c0 21.802 17.737 39.539 39.539 39.539h41.027v13.017h-39.7zm214.814 168.609v13.26H147.75a7.5 7.5 0 0 0-7.5 7.5 7.5 7.5 0 0 0 7.5 7.5h117.688v75.921c0 14.432-11.741 26.172-26.173 26.172H100.232c-14.432 0-26.173-11.741-26.173-26.172v-75.921h20.19a7.5 7.5 0 0 0 7.5-7.5 7.5 7.5 0 0 0-7.5-7.5H56.813v-13.26h225.87zm-50.755-133.468h5.288c27.085 0 49.12-22.036 49.12-49.121v-72.646c0-7.763 4.706-14.443 11.411-17.352v91.51c0 31.576-25.688 57.264-57.264 57.264h-8.556v-9.655h.001zm92.23-49.12c0 47.94-39.002 86.942-86.942 86.942h-5.288v-13.167h8.556c39.847 0 72.264-32.417 72.264-72.264v-91.51c6.706 2.91 11.411 9.589 11.411 17.352v72.647h-.001z" fill="#000"/></g></svg>