<svg width="368" height="512" viewBox="0 0 368 512" xmlns="http://www.w3.org/2000/svg"><title>cactus (4)</title><g transform="translate(-1)" fill-rule="nonzero" fill="none"><path d="M360.583 183.07c-9.327 82.487-89.998 182.443-175.57 182.443-85.572 0-166.243-99.956-175.57-182.443C-.992 90.777 77.085 7.5 185.013 7.5s186.005 83.277 175.57 175.57z" fill="#80C56E"/><path d="M295.009 183.07c-5.843 82.487-56.385 182.443-109.996 182.443S80.861 265.557 75.017 183.07C68.48 90.777 117.395 7.5 185.013 7.5s116.534 83.277 109.996 175.57z" fill="#66AD66"/><path d="M225.667 183.07c-2.16 82.487-20.839 182.443-40.653 182.443s-38.494-99.956-40.653-182.443C141.943 90.777 160.022 7.5 185.013 7.5s43.07 83.277 40.654 175.57z" fill="#80C56E"/><path d="M275.375 504.5H94.651c-14.466 0-26.942-10.163-29.868-24.331L32.7 324.789h304.626L305.243 480.17c-2.925 14.167-15.401 24.33-29.868 24.33z" fill="#FEC37D"/><path d="M287.825 324.789L255.742 480.17c-2.925 14.167-15.401 24.331-29.867 24.331h49.501c14.466 0 26.942-10.163 29.867-24.331l32.083-155.381h-49.501z" fill="#F9AE5D"/><path d="M349.561 335.981H20.465a5.037 5.037 0 0 1-5.037-5.037v-19.24a5.037 5.037 0 0 1 5.037-5.037h329.096a5.037 5.037 0 0 1 5.037 5.037v19.24a5.037 5.037 0 0 1-5.037 5.037z" fill="#F2A559"/><path d="M349.561 306.668h-46.383v29.313h46.383a5.037 5.037 0 0 0 5.037-5.037v-19.24a5.037 5.037 0 0 0-5.037-5.036z" fill="#EA8F3D"/><g transform="translate(177 60)" fill="#66AD66"><circle cx="8.01" cy="8.31" r="7.76"/><circle cx="8.01" cy="68.99" r="7.76"/><circle cx="8.01" cy="129.66" r="7.76"/><circle cx="8.01" cy="190.33" r="7.76"/></g><g transform="translate(102 60)" fill="#80C56E"><circle cx="25.84" cy="8.31" r="7.76"/><circle cx="8.48" cy="68.99" r="7.76"/><circle cx="8.48" cy="129.66" r="7.76"/><circle cx="18.08" cy="190.33" r="7.76"/><circle cx="140.55" cy="8.31" r="7.76"/><circle cx="157.9" cy="68.99" r="7.76"/><circle cx="157.9" cy="129.66" r="7.76"/><circle cx="148.31" cy="190.33" r="7.76"/></g><g transform="translate(35 60)" fill="#66AD66"><circle cx="260.6" cy="8.31" r="7.76"/><circle cx="291.62" cy="68.99" r="7.76"/><circle cx="291.62" cy="129.66" r="7.76"/><circle cx="276.11" cy="190.33" r="7.76"/><circle cx="39.43" cy="8.31" r="7.76"/><circle cx="8.4" cy="68.99" r="7.76"/><circle cx="8.4" cy="129.66" r="7.76"/><circle cx="23.92" cy="190.33" r="7.76"/></g><path fill="#F2A559" d="M275.723 417.61l-45.361-28-45.355 28-45.357-28-45.355 28-48.628-30.022 10 48.431 38.628 23.849 45.355-28.001 45.357 28.001 45.355-28.001 45.361 28.001 38.636-23.849 10-48.43z"/><path fill="#EA8F3D" d="M275.723 459.868l38.636-23.849 6.126-29.669 3.874-18.761-48.636 30.021-6.265-3.867-7.739 37.48z"/><circle fill="#000" cx="185.01" cy="68.31" r="7.76"/><circle fill="#000" cx="185.01" cy="128.99" r="7.76"/><circle fill="#000" cx="185.01" cy="189.66" r="7.76"/><circle fill="#000" cx="185.01" cy="250.33" r="7.76"/><circle fill="#000" cx="127.84" cy="68.31" r="7.76"/><circle fill="#000" cx="110.48" cy="128.99" r="7.76"/><circle fill="#000" cx="110.48" cy="189.66" r="7.76"/><circle fill="#000" cx="120.08" cy="250.33" r="7.76"/><circle fill="#000" cx="242.55" cy="68.31" r="7.76"/><circle fill="#000" cx="259.9" cy="128.99" r="7.76"/><circle fill="#000" cx="259.9" cy="189.66" r="7.76"/><circle fill="#000" cx="250.31" cy="250.33" r="7.76"/><circle fill="#000" cx="295.6" cy="68.31" r="7.76"/><circle fill="#000" cx="326.62" cy="128.99" r="7.76"/><circle fill="#000" cx="326.62" cy="189.66" r="7.76"/><circle fill="#000" cx="311.11" cy="250.33" r="7.76"/><circle fill="#000" cx="74.43" cy="68.31" r="7.76"/><circle fill="#000" cx="43.4" cy="128.99" r="7.76"/><circle fill="#000" cx="43.4" cy="189.66" r="7.76"/><circle fill="#000" cx="58.92" cy="250.33" r="7.76"/><path d="M356.165 105.068a7.5 7.5 0 0 0-13.756 5.979c9.744 22.417 13.452 47.031 10.722 71.18-4.402 38.928-25.414 82.418-56.392 116.941h-27.032c17.991-35.035 30.074-77.314 32.784-115.568 2.045-28.866-1.178-58.047-9.32-84.388-8.022-25.951-20.629-48.65-36.461-65.643a125.665 125.665 0 0 0-7.733-7.621 176.807 176.807 0 0 1 9.481 3.729c21.651 9.264 40.493 22.386 56.003 39.002a7.5 7.5 0 1 0 10.965-10.235c-16.942-18.149-37.487-32.468-61.067-42.557C239.726 5.345 213.03 0 185.013 0 128.922 0 76.823 22.31 42.074 61.209 11.188 95.783-3.046 139.36 1.991 183.912c4.318 38.195 23.314 80.264 51.613 115.255H20.466c-6.913 0-12.537 5.624-12.537 12.537v19.24c0 6.913 5.624 12.537 12.537 12.537h8.436l9.419 45.618.001.005 10 48.431.002.007 9.115 44.142C61.065 499.251 76.714 512 94.651 512h180.724c17.937 0 33.587-12.749 37.213-30.314l9.116-44.148v-.002l1.999-9.684 17.421-84.37h8.437c6.912 0 12.536-5.624 12.536-12.537v-19.24c0-6.913-5.624-12.537-12.536-12.537h-33.139c28.299-34.991 47.294-77.06 51.613-115.255 3.026-26.757-1.079-54.021-11.87-78.845zm-110.43-61.274c29.591 31.761 45.605 84.926 41.792 138.746-2.753 38.867-15.702 82.121-34.813 116.628h-31.886c6.771-34.933 11.331-77.49 12.336-115.902 1.006-38.397-1.518-76.984-7.106-108.653-3.149-17.848-8.44-40.06-16.832-55.508 13.152 4.564 25.508 12.881 36.509 24.689zM185.013 15c1.932 0 3.959 1.665 5.318 3.061 8.162 8.378 15.8 29.941 20.955 59.159 5.418 30.709 7.862 68.231 6.883 105.654-1.014 38.692-5.696 81.639-12.626 116.294h-41.06c-6.93-34.655-11.613-77.602-12.626-116.294-.98-37.423 1.465-74.945 6.883-105.654 5.154-29.218 12.792-50.781 20.955-59.159 1.359-1.396 3.386-3.061 5.318-3.061zM160.8 19.105c-8.392 15.448-13.683 37.66-16.832 55.508-5.588 31.669-8.112 70.256-7.106 108.653 1.005 38.412 5.565 80.968 12.336 115.902h-31.886c-19.112-34.506-32.06-77.76-34.813-116.628C78.686 128.72 94.7 75.555 124.291 43.794c11.001-11.808 23.358-20.125 36.509-24.689zM16.895 182.227c-4.551-40.25 8.364-79.679 36.365-111.024 18.108-20.271 41.41-35.628 67.648-45.126a125.602 125.602 0 0 0-7.593 7.492C97.484 50.562 84.876 73.26 76.854 99.212c-8.142 26.341-11.365 55.522-9.32 84.388 2.71 38.254 14.793 80.533 32.784 115.568H73.286c-30.977-34.523-51.988-78.013-56.391-116.941zm281.003 296.425C295.703 489.284 286.231 497 275.375 497H94.651c-10.856 0-20.328-7.716-22.523-18.347l-5.598-27.111 23.824 14.709a7.5 7.5 0 0 0 7.88 0l41.415-25.569 41.417 25.569a7.5 7.5 0 0 0 7.88 0l41.416-25.569 41.422 25.569a7.498 7.498 0 0 0 7.879 0l23.834-14.712-5.599 27.113zm9.77-47.317l-31.944 19.719-41.422-25.569a7.498 7.498 0 0 0-7.88 0l-41.416 25.569-41.417-25.569a7.498 7.498 0 0 0-7.879 0l-41.415 25.569-31.936-19.717-5.828-28.227 33.824 20.883a7.502 7.502 0 0 0 7.88 0l41.415-25.569 41.417 25.569a7.498 7.498 0 0 0 7.879 0l41.416-25.569 41.422 25.569a7.498 7.498 0 0 0 7.879 0l33.833-20.884-5.828 28.226zm39.43-117.167v14.313H120.08a7.5 7.5 0 0 0 0 15h205.729l-8.14 39.423-41.945 25.892-41.422-25.569a7.498 7.498 0 0 0-7.879 0l-41.416 25.569-41.417-25.569a7.498 7.498 0 0 0-7.879 0l-41.415 25.569-41.937-25.892-8.14-39.423h22.457a7.5 7.5 0 0 0 0-15H22.929v-14.313h324.169z" fill="#000"/></g></svg>